<svg xmlns="http://www.w3.org/2000/svg" xmlns:xlink="http://www.w3.org/1999/xlink" width="600" zoomAndPan="magnify" viewBox="0 0 450 449.999984" height="600" preserveAspectRatio="xMidYMid meet" version="1.0"><defs><clipPath id="dc7ccf49cd"><path d="M 31.789062 11 L 418.039062 11 L 418.039062 439 L 31.789062 439 Z M 31.789062 11 " clip-rule="nonzero"/></clipPath></defs><g clip-path="url(#dc7ccf49cd)"><path fill="#726f6d" d="M 353.800781 313.765625 C 337.488281 313.765625 322.78125 320.097656 311.617188 330.296875 L 158.664062 241.097656 C 159.84375 236.269531 160.59375 231.222656 160.59375 226.070312 C 160.59375 220.917969 159.84375 215.875 158.664062 211.042969 L 310.007812 122.707031 C 321.492188 133.4375 336.84375 140.09375 353.800781 140.09375 C 389.332031 140.09375 418.203125 111.21875 418.203125 75.691406 C 418.203125 40.164062 389.332031 11.289062 353.800781 11.289062 C 318.273438 11.289062 289.398438 40.164062 289.398438 75.691406 C 289.398438 80.84375 290.152344 85.890625 291.332031 90.71875 L 139.984375 179.058594 C 128.5 168.324219 113.152344 161.667969 96.191406 161.667969 C 60.664062 161.667969 31.789062 190.542969 31.789062 226.070312 C 31.789062 261.601562 60.664062 290.472656 96.191406 290.472656 C 113.152344 290.472656 128.5 283.820312 139.984375 273.085938 L 292.941406 362.28125 C 291.867188 366.789062 291.222656 371.511719 291.222656 376.34375 C 291.222656 410.90625 319.238281 438.921875 353.800781 438.921875 C 388.363281 438.921875 416.378906 410.90625 416.378906 376.34375 C 416.378906 341.78125 388.363281 313.765625 353.800781 313.765625 Z M 353.800781 313.765625 " fill-opacity="1" fill-rule="nonzero"/></g></svg>