<svg xmlns="http://www.w3.org/2000/svg" xmlns:xlink="http://www.w3.org/1999/xlink" width="600" zoomAndPan="magnify" viewBox="0 0 450 449.999984" height="600" preserveAspectRatio="xMidYMid meet" version="1.0"><defs><clipPath id="529ca1f4a3"><path d="M 135 135 L 144.75 135 L 144.75 144.75 L 135 144.75 Z M 135 135 " clip-rule="nonzero"/></clipPath></defs><path fill="#726f6d" d="M 259.035156 222.242188 C 258.589844 222.730469 258.117188 223.195312 257.625 223.636719 C 257.132812 224.078125 256.617188 224.496094 256.082031 224.882812 C 255.546875 225.273438 254.992188 225.632812 254.421875 225.96875 C 253.847656 226.300781 253.261719 226.605469 252.65625 226.878906 C 252.054688 227.152344 251.441406 227.394531 250.8125 227.605469 C 250.1875 227.820312 249.550781 228 248.902344 228.144531 C 248.257812 228.292969 247.605469 228.40625 246.949219 228.488281 C 246.292969 228.570312 245.632812 228.617188 244.972656 228.632812 C 244.308594 228.648438 243.648438 228.628906 242.988281 228.574219 C 242.328125 228.523438 241.671875 228.4375 241.023438 228.320312 C 240.371094 228.203125 239.726562 228.050781 239.089844 227.867188 C 238.453125 227.683594 237.828125 227.46875 237.214844 227.21875 C 236.601562 226.972656 236 226.695312 235.414062 226.386719 C 234.828125 226.082031 234.257812 225.746094 233.707031 225.378906 C 233.152344 225.015625 232.621094 224.621094 232.109375 224.203125 C 231.597656 223.785156 231.105469 223.339844 230.640625 222.871094 C 230.171875 222.402344 229.730469 221.910156 229.3125 221.398438 C 228.894531 220.882812 228.503906 220.351562 228.136719 219.796875 C 227.773438 219.246094 227.4375 218.675781 227.132812 218.085938 C 226.828125 217.5 226.550781 216.898438 226.304688 216.285156 C 226.058594 215.667969 225.847656 215.042969 225.664062 214.40625 C 225.480469 213.769531 225.332031 213.125 225.214844 212.476562 C 225.097656 211.824219 225.015625 211.167969 224.964844 210.507812 C 224.914062 209.847656 224.894531 209.1875 224.914062 208.523438 C 224.929688 207.863281 224.976562 207.203125 225.0625 206.546875 C 225.144531 205.890625 225.261719 205.238281 225.410156 204.59375 C 225.558594 203.949219 225.738281 203.3125 225.953125 202.683594 C 226.164062 202.058594 226.410156 201.445312 226.683594 200.84375 C 226.960938 200.238281 227.265625 199.652344 227.601562 199.082031 C 227.933594 198.511719 228.296875 197.957031 228.6875 197.421875 C 229.078125 196.890625 229.496094 196.375 229.9375 195.882812 C 230.378906 195.390625 230.847656 194.921875 231.335938 194.476562 L 346.027344 79.785156 C 342.890625 77.230469 339.675781 74.78125 336.386719 72.433594 C 333.09375 70.085938 329.730469 67.84375 326.296875 65.707031 C 322.863281 63.574219 319.363281 61.546875 315.804688 59.632812 C 312.242188 57.71875 308.621094 55.921875 304.945312 54.238281 C 301.269531 52.550781 297.542969 50.984375 293.769531 49.535156 C 289.992188 48.089844 286.175781 46.761719 282.316406 45.554688 C 278.457031 44.347656 274.5625 43.261719 270.632812 42.304688 C 266.707031 41.34375 262.753906 40.507812 258.769531 39.796875 C 254.789062 39.089844 250.789062 38.503906 246.773438 38.046875 C 242.753906 37.59375 238.726562 37.261719 234.6875 37.0625 C 230.648438 36.859375 226.609375 36.785156 222.566406 36.839844 C 218.519531 36.894531 214.484375 37.078125 210.453125 37.390625 C 206.417969 37.699219 202.402344 38.136719 198.398438 38.703125 C 194.394531 39.265625 190.410156 39.957031 186.453125 40.773438 C 182.492188 41.59375 178.558594 42.535156 174.660156 43.597656 C 170.757812 44.664062 166.894531 45.855469 163.070312 47.164062 C 159.246094 48.476562 155.464844 49.90625 151.730469 51.457031 C 147.996094 53.007812 144.3125 54.671875 140.683594 56.457031 C 137.054688 58.238281 133.484375 60.136719 129.976562 62.144531 C 126.46875 64.15625 123.023438 66.273438 119.648438 68.5 C 116.273438 70.726562 112.972656 73.058594 109.746094 75.496094 C 106.519531 77.933594 103.371094 80.46875 100.304688 83.105469 C 97.238281 85.738281 94.257812 88.46875 91.363281 91.292969 C 88.472656 94.121094 85.667969 97.03125 82.960938 100.035156 C 80.25 103.035156 77.640625 106.121094 75.125 109.289062 C 72.613281 112.457031 70.199219 115.699219 67.890625 119.019531 C 65.585938 122.339844 63.382812 125.730469 61.289062 129.191406 C 59.195312 132.648438 57.214844 136.171875 55.34375 139.757812 C 53.472656 143.339844 51.71875 146.980469 50.078125 150.679688 C 48.4375 154.375 46.914062 158.117188 45.511719 161.910156 C 44.109375 165.703125 42.828125 169.539062 41.667969 173.410156 C 40.507812 177.285156 39.472656 181.191406 38.558594 185.132812 C 37.648438 189.070312 36.859375 193.035156 36.199219 197.023438 C 35.535156 201.011719 35 205.019531 34.59375 209.042969 C 34.1875 213.066406 33.90625 217.097656 33.753906 221.140625 C 33.601562 225.179688 33.578125 229.222656 33.679688 233.261719 C 33.785156 237.304688 34.015625 241.339844 34.375 245.367188 C 34.734375 249.398438 35.21875 253.410156 35.832031 257.40625 C 36.445312 261.402344 37.183594 265.375 38.050781 269.328125 C 38.914062 273.277344 39.902344 277.195312 41.015625 281.082031 C 42.128906 284.972656 43.363281 288.820312 44.722656 292.628906 C 46.078125 296.4375 47.554688 300.199219 49.148438 303.917969 C 50.746094 307.632812 52.457031 311.292969 54.285156 314.902344 C 56.109375 318.507812 58.050781 322.054688 60.101562 325.539062 C 62.152344 329.023438 64.3125 332.441406 66.582031 335.789062 C 68.847656 339.136719 71.222656 342.40625 73.695312 345.605469 C 76.171875 348.804688 78.746094 351.917969 81.417969 354.953125 C 84.089844 357.988281 86.855469 360.933594 89.714844 363.792969 C 92.574219 366.652344 95.523438 369.421875 98.558594 372.09375 C 101.59375 374.765625 104.707031 377.339844 107.90625 379.816406 C 111.101562 382.289062 114.375 384.660156 117.722656 386.929688 C 121.070312 389.199219 124.488281 391.359375 127.972656 393.410156 C 131.457031 395.460938 135.003906 397.402344 138.609375 399.226562 C 142.21875 401.054688 145.878906 402.765625 149.59375 404.359375 C 153.3125 405.957031 157.074219 407.433594 160.882812 408.789062 C 164.691406 410.144531 168.539062 411.382812 172.429688 412.496094 C 176.316406 413.609375 180.234375 414.597656 184.183594 415.460938 C 188.136719 416.328125 192.109375 417.066406 196.105469 417.679688 C 200.101562 418.292969 204.113281 418.777344 208.144531 419.136719 C 212.171875 419.496094 216.207031 419.726562 220.246094 419.832031 C 224.289062 419.933594 228.332031 419.910156 232.371094 419.757812 C 236.414062 419.605469 240.445312 419.324219 244.46875 418.917969 C 248.492188 418.507812 252.5 417.976562 256.488281 417.3125 C 260.476562 416.652344 264.441406 415.863281 268.378906 414.953125 C 272.320312 414.039062 276.226562 413.003906 280.101562 411.84375 C 283.972656 410.683594 287.808594 409.402344 291.601562 408 C 295.390625 406.597656 299.136719 405.074219 302.832031 403.433594 C 306.527344 401.792969 310.167969 400.039062 313.753906 398.167969 C 317.339844 396.296875 320.863281 394.316406 324.320312 392.222656 C 327.78125 390.128906 331.171875 387.925781 334.492188 385.617188 C 337.8125 383.308594 341.054688 380.898438 344.222656 378.386719 C 347.390625 375.871094 350.476562 373.261719 353.476562 370.550781 C 356.480469 367.839844 359.390625 365.039062 362.214844 362.144531 C 365.039062 359.253906 367.769531 356.273438 370.40625 353.207031 C 373.042969 350.140625 375.578125 346.992188 378.015625 343.765625 C 380.453125 340.539062 382.785156 337.238281 385.011719 333.863281 C 387.238281 330.488281 389.355469 327.042969 391.367188 323.535156 C 393.375 320.027344 395.273438 316.457031 397.054688 312.828125 C 398.839844 309.199219 400.503906 305.515625 402.054688 301.78125 C 403.605469 298.046875 405.035156 294.265625 406.347656 290.441406 C 407.65625 286.617188 408.847656 282.753906 409.910156 278.851562 C 410.976562 274.949219 411.917969 271.019531 412.738281 267.058594 C 413.554688 263.101562 414.246094 259.117188 414.808594 255.113281 C 415.375 251.109375 415.8125 247.089844 416.121094 243.058594 C 416.433594 239.027344 416.613281 234.992188 416.667969 230.945312 C 416.722656 226.902344 416.652344 222.863281 416.449219 218.824219 C 416.25 214.785156 415.917969 210.757812 415.464844 206.738281 C 415.007812 202.722656 414.421875 198.722656 413.714844 194.742188 C 413.003906 190.757812 412.167969 186.804688 411.207031 182.875 C 410.25 178.949219 409.164062 175.054688 407.957031 171.195312 C 406.75 167.335938 405.421875 163.519531 403.976562 159.742188 C 402.527344 155.96875 400.960938 152.242188 399.273438 148.566406 C 397.589844 144.890625 395.792969 141.269531 393.878906 137.707031 C 391.964844 134.144531 389.9375 130.648438 387.804688 127.214844 C 385.667969 123.78125 383.425781 120.417969 381.078125 117.125 C 378.730469 113.832031 376.277344 110.621094 373.726562 107.484375 Z M 259.035156 222.242188 " fill-opacity="1" fill-rule="nonzero"/><g clip-path="url(#529ca1f4a3)"><path fill="#726f6d" d="M 135.03125 135.03125 L 144.882812 135.03125 L 144.882812 144.882812 L 135.03125 144.882812 Z M 135.03125 135.03125 " fill-opacity="1" fill-rule="nonzero"/><path fill="#726f6d" d="M 135 135 L 135 144.914062 L 144.914062 144.914062 L 144.914062 135 Z M 144.851562 144.851562 L 135.0625 144.851562 L 135.0625 135.0625 L 144.851562 135.0625 Z M 144.851562 144.851562 " fill-opacity="1" fill-rule="nonzero"/></g></svg>