<svg xmlns="http://www.w3.org/2000/svg" viewBox="0 0 375 375" preserveAspectRatio="xMidYMid meet">
  <path fill="#8a7e77" fill-rule="evenodd" d="M241.441406 46.839844
       L238.972656 33.035156
       C237.03125 22.1875 244.257812 11.804688 255.105469 9.863281
       C265.953125 7.921875 276.335938 15.152344 278.277344 26
       L288.46875 82.929688
       C289.433594 88.675781 288.03125 94.578125 284.15625 99.230469
       C281.070312 102.933594 276.921875 105.238281 272.523438 106.066406
       L215.402344 116.292969
       C204.554688 118.234375 194.171875 111.003906 192.230469 100.15625
       C190.429688 90.085938 196.53125 80.414062 206.097656 77.527344
       C192.015625 74.546875 177.144531 74.179688 162.121094 76.867188
       C99.652344 88.050781 58.011719 147.84375 69.195312 210.3125
       C80.378906 272.78125 140.171875 314.417969 202.640625 303.234375
       C265.105469 292.054688 306.746094 232.257812 295.5625 169.792969
       C293.621094 158.945312 300.851562 148.558594 311.699219 146.617188
       C322.546875 144.675781 332.929688 151.910156 334.871094 162.757812
       C349.9375 246.917969 293.839844 327.480469 209.675781 342.546875
       C125.515625 357.613281 44.953125 301.515625 29.886719 217.351562
       C14.820312 133.1875 70.921875 52.625 155.082031 37.5625
       C185.289062 32.152344 215.03125 35.910156 241.441406 46.839844
       Z"></path>
</svg>
