<svg xmlns="http://www.w3.org/2000/svg" xmlns:xlink="http://www.w3.org/1999/xlink" width="600" zoomAndPan="magnify" viewBox="0 0 450 449.999984" height="600" preserveAspectRatio="xMidYMid meet" version="1.0"><defs><clipPath id="759d5cb207"><path d="M 141.363281 73.894531 L 151.863281 73.894531 L 151.863281 84.394531 L 141.363281 84.394531 Z M 141.363281 73.894531 " clip-rule="nonzero"/></clipPath><clipPath id="c06a42f619"><path d="M 9.375 9 L 440.625 9 L 440.625 440.832031 L 9.375 440.832031 Z M 9.375 9 " clip-rule="nonzero"/></clipPath></defs><g clip-path="url(#759d5cb207)"><path fill="#726f6d" d="M 141.398438 73.925781 L 151.515625 73.925781 L 151.515625 84.046875 L 141.398438 84.046875 Z M 141.398438 73.925781 " fill-opacity="1" fill-rule="nonzero"/><path fill="#726f6d" d="M 141.363281 73.894531 L 141.363281 84.078125 L 151.546875 84.078125 L 151.546875 73.894531 Z M 151.484375 84.011719 L 141.429688 84.011719 L 141.429688 73.957031 L 151.484375 73.957031 Z M 151.484375 84.011719 " fill-opacity="1" fill-rule="nonzero"/></g><g clip-path="url(#c06a42f619)"><path fill="#8a7e77" d="M 440.554688 225.007812 C 440.472656 345.007812 344.402344 441.15625 224.695312 441.066406 C 105.203125 440.964844 9.402344 344.460938 9.585938 224.292969 C 9.765625 105.574219 107.738281 8.910156 227.648438 9.90625 C 344.253906 10.863281 440.632812 107.546875 440.554688 225.007812 Z M 354.503906 312.234375 C 392.484375 259.519531 394.335938 172.554688 334.503906 113.933594 C 273.761719 54.421875 187.503906 59.960938 138.355469 95.964844 C 210.292969 167.953125 282.304688 239.992188 354.503906 312.234375 Z M 95.261719 139.007812 C 56.609375 193.425781 55.730469 282.996094 120.289062 341.570312 C 181.300781 396.933594 265.222656 389.449219 311.347656 355.078125 C 239.402344 283.136719 167.421875 211.167969 95.261719 139.007812 Z M 95.261719 139.007812 " fill-opacity="1" fill-rule="nonzero"/></g></svg>