<svg xmlns="http://www.w3.org/2000/svg" xmlns:xlink="http://www.w3.org/1999/xlink" width="600" zoomAndPan="magnify" viewBox="0 0 450 449.999984" height="600" preserveAspectRatio="xMidYMid meet" version="1.0"><defs><clipPath id="57dfb5294e"><path d="M 121 45 L 131.496094 45 L 131.496094 55.5 L 121 55.5 Z M 121 45 " clip-rule="nonzero"/></clipPath><clipPath id="7acbbfad2e"><path d="M 120.996094 45 L 131.496094 45 L 131.496094 55.5 L 120.996094 55.5 Z M 120.996094 45 " clip-rule="nonzero"/></clipPath></defs><g clip-path="url(#57dfb5294e)"><path fill="#726f6d" d="M 121.027344 45.03125 L 131.148438 45.03125 L 131.148438 55.152344 L 121.027344 55.152344 Z M 121.027344 45.03125 " fill-opacity="1" fill-rule="nonzero"/></g><g clip-path="url(#7acbbfad2e)"><path fill="#726f6d" d="M 120.996094 45 L 120.996094 55.183594 L 131.179688 55.183594 L 131.179688 45 Z M 131.117188 55.121094 L 121.0625 55.121094 L 121.0625 45.0625 L 131.117188 45.0625 Z M 131.117188 55.121094 " fill-opacity="1" fill-rule="nonzero"/></g><path fill="#726f6d" d="M 360.148438 258.347656 C 361.0625 258.800781 362.15625 258.300781 362.40625 257.320312 C 366.371094 241.027344 368.671875 231.777344 369.289062 229.589844 C 369.925781 227.332031 370.972656 226.191406 372.410156 226.167969 C 376.054688 226.101562 377.058594 221.15625 373.84375 219.082031 C 365.9375 214 363.25 207.1875 362.132812 197.160156 C 357.847656 158.988281 342.808594 121.867188 317.148438 95.296875 C 305.867188 83.605469 291.421875 74.082031 273.851562 66.695312 C 211.707031 40.605469 140.859375 67.746094 106.242188 123.734375 C 92.363281 146.207031 84.457031 171.25 82.519531 198.890625 C 82.019531 206.046875 80.71875 212.839844 75.136719 216.234375 C 72.015625 218.125 69.941406 219.378906 68.960938 219.996094 C 67.273438 221.019531 67.230469 223.457031 68.871094 224.550781 L 71.921875 226.578125 C 72.628906 227.058594 73.152344 227.789062 73.335938 228.632812 L 79.875 257.117188 C 80.082031 258.003906 81.0625 258.460938 81.859375 258.050781 C 94.1875 251.667969 119.640625 239.59375 132.242188 242.894531 C 140.515625 245.0625 145.917969 250.574219 148.445312 259.417969 C 160.707031 302.464844 174.539062 348.246094 189.945312 396.761719 C 195.046875 412.761719 186.753906 420.507812 171.734375 425.933594 C 156.195312 431.515625 142.703125 435.207031 131.285156 436.960938 C 122.71875 438.285156 120.691406 435.320312 114.652344 431.949219 C 113.898438 431.539062 113.054688 431.308594 112.191406 431.332031 C 85.503906 431.699219 76.230469 415.382812 68.480469 390.449219 C 66.726562 384.800781 61.097656 368.277344 51.597656 340.886719 C 46.355469 325.730469 45.011719 307.796875 57.476562 296.039062 C 58.226562 295.285156 58.820312 294.648438 59.207031 294.125 C 59.707031 293.394531 59.824219 292.460938 59.457031 291.664062 C 51.414062 273.046875 46.96875 252.855469 46.082031 231.136719 C 46.035156 230.25 46.652344 229.429688 47.539062 229.222656 L 49.726562 228.722656 C 50.457031 228.5625 51.050781 228.039062 51.300781 227.308594 C 51.9375 225.371094 52.027344 223.09375 51.597656 220.472656 C 51.460938 219.675781 50.707031 219.105469 49.886719 219.195312 L 45.671875 219.675781 C 43.097656 219.949219 40.816406 217.988281 40.726562 215.390625 C 38.949219 161.996094 53.464844 116.46875 84.273438 78.773438 C 104.214844 54.390625 127.730469 36.707031 154.871094 25.722656 C 218.429688 -0.0273438 291.578125 10.933594 341.53125 59.382812 C 384.53125 101.0625 404.882812 152.335938 402.625 213.203125 C 402.535156 215.847656 400.667969 218.101562 398.070312 218.695312 L 395.0625 219.402344 C 394.265625 219.582031 393.601562 220.175781 393.351562 220.953125 C 391.847656 225.621094 392.691406 228.3125 395.882812 228.996094 C 396.839844 229.199219 397.5 230.089844 397.410156 231.070312 C 395.722656 251.121094 392.484375 273.25 383.347656 290.75 C 382.777344 291.84375 383.007812 293.167969 383.894531 293.988281 C 398.207031 307.183594 397.957031 323.613281 392.210938 341.386719 C 386.082031 360.347656 378.789062 381.699219 370.335938 405.46875 C 363.75 424.019531 347.84375 432.972656 328.199219 431.058594 C 327.039062 430.945312 325.875 431.425781 325.125 432.3125 C 321.136719 437.074219 314.367188 438.421875 304.863281 436.300781 C 292.582031 433.566406 279.070312 429.417969 264.324219 423.859375 C 248.625 417.933594 247.941406 406.039062 251.859375 391.292969 C 252.339844 389.492188 263.457031 355.949219 285.199219 290.707031 C 287.410156 284.074219 290.03125 275.117188 293.0625 263.882812 C 296.660156 250.597656 304.25 239.867188 319.65625 242.691406 C 334.351562 245.402344 347.070312 251.648438 360.148438 258.347656 Z M 360.148438 258.347656 " fill-opacity="1" fill-rule="nonzero"/></svg>