<svg xmlns="http://www.w3.org/2000/svg" xmlns:xlink="http://www.w3.org/1999/xlink" width="600" zoomAndPan="magnify" viewBox="0 0 450 449.999984" height="600" preserveAspectRatio="xMidYMid meet" version="1.0"><defs><clipPath id="e210e81a16"><path d="M 163.148438 76.066406 L 172.898438 76.066406 L 172.898438 85.816406 L 163.148438 85.816406 Z M 163.148438 76.066406 " clip-rule="nonzero"/></clipPath><clipPath id="2725e8a262"><path d="M 15.871094 15.871094 L 434.371094 15.871094 L 434.371094 434.371094 L 15.871094 434.371094 Z M 15.871094 15.871094 " clip-rule="nonzero"/></clipPath></defs><g clip-path="url(#e210e81a16)"><path fill="#726f6d" d="M 163.179688 76.09375 L 172.890625 76.09375 L 172.890625 85.808594 L 163.179688 85.808594 Z M 163.179688 76.09375 " fill-opacity="1" fill-rule="nonzero"/><path fill="#726f6d" d="M 163.148438 76.066406 L 163.148438 85.839844 L 172.921875 85.839844 L 172.921875 76.066406 Z M 172.863281 85.777344 L 163.210938 85.777344 L 163.210938 76.125 L 172.863281 76.125 Z M 172.863281 85.777344 " fill-opacity="1" fill-rule="nonzero"/></g><g clip-path="url(#2725e8a262)"><path fill="#726f6d" d="M 401.636719 181.371094 L 392.6875 181.371094 C 387.726562 181.371094 383.351562 178.164062 381.792969 173.492188 C 379.167969 165.613281 376.054688 157.929688 372.261719 150.636719 C 370.023438 146.160156 370.800781 140.8125 374.402344 137.210938 L 380.820312 130.792969 C 393.464844 118.148438 393.464844 97.429688 380.820312 84.785156 L 365.0625 69.222656 C 352.417969 56.578125 331.796875 56.578125 319.054688 69.222656 L 312.636719 75.640625 C 309.132812 79.144531 303.6875 80.019531 299.308594 77.78125 C 292.015625 74.085938 284.332031 70.875 276.453125 68.25 C 271.6875 66.691406 268.574219 62.316406 268.574219 57.355469 L 268.574219 48.40625 C 268.574219 30.507812 253.984375 15.917969 236.085938 15.917969 L 214.007812 15.917969 C 196.109375 15.917969 181.519531 30.507812 181.519531 48.40625 L 181.519531 57.355469 C 181.519531 62.316406 178.308594 66.691406 173.640625 68.25 C 165.761719 70.875 158.078125 73.988281 150.78125 77.78125 C 146.308594 80.019531 140.957031 79.242188 137.359375 75.640625 L 130.9375 69.222656 C 118.292969 56.578125 97.574219 56.578125 84.929688 69.222656 L 69.269531 84.882812 C 56.625 97.527344 56.625 118.246094 69.269531 130.890625 L 75.691406 137.308594 C 79.191406 140.8125 80.066406 146.160156 77.832031 150.636719 C 74.132812 157.929688 70.925781 165.613281 68.296875 173.492188 C 66.742188 178.261719 62.363281 181.371094 57.402344 181.371094 L 48.457031 181.371094 C 30.460938 181.371094 15.871094 195.960938 15.871094 213.957031 L 15.871094 236.039062 C 15.871094 253.933594 30.460938 268.523438 48.359375 268.523438 L 57.308594 268.523438 C 62.265625 268.523438 66.644531 271.734375 68.199219 276.402344 C 70.828125 284.28125 73.941406 291.964844 77.734375 299.261719 C 79.96875 303.734375 79.191406 309.085938 75.59375 312.683594 L 69.171875 319.105469 C 56.527344 331.75 56.527344 352.46875 69.171875 365.113281 L 84.929688 380.675781 C 97.574219 393.320312 118.195312 393.320312 130.9375 380.675781 L 137.359375 374.253906 C 140.859375 370.753906 146.308594 369.878906 150.683594 372.117188 C 157.980469 375.8125 165.664062 379.023438 173.542969 381.648438 C 178.308594 383.203125 181.421875 387.582031 181.421875 392.542969 L 181.421875 401.589844 C 181.421875 419.484375 196.011719 434.074219 213.910156 434.074219 L 235.988281 434.074219 C 253.886719 434.074219 268.476562 419.484375 268.476562 401.589844 L 268.476562 392.542969 C 268.476562 387.582031 271.6875 383.203125 276.355469 381.648438 C 284.234375 379.023438 291.917969 375.910156 299.214844 372.117188 C 303.6875 369.878906 309.039062 370.65625 312.636719 374.253906 L 319.054688 380.675781 C 331.699219 393.320312 352.417969 393.320312 365.0625 380.675781 L 380.722656 365.015625 C 393.367188 352.371094 393.367188 331.652344 380.722656 319.007812 L 374.304688 312.585938 C 370.800781 309.085938 369.925781 303.734375 372.164062 299.261719 C 375.859375 291.964844 379.070312 284.28125 381.695312 276.402344 C 383.253906 271.636719 387.628906 268.523438 392.589844 268.523438 L 401.539062 268.523438 C 419.4375 268.523438 434.027344 253.933594 434.027344 236.039062 L 434.027344 213.957031 C 434.125 195.960938 419.535156 181.371094 401.636719 181.371094 Z M 413.210938 235.941406 C 413.210938 242.359375 407.960938 247.515625 401.636719 247.515625 L 392.6875 247.515625 C 378.679688 247.515625 366.328125 256.464844 361.953125 269.789062 C 359.714844 276.597656 356.894531 283.308594 353.683594 289.730469 C 347.359375 302.277344 349.695312 317.355469 359.617188 327.371094 L 366.035156 333.792969 C 370.609375 338.363281 370.609375 345.660156 366.035156 350.230469 L 350.375 365.890625 C 345.804688 370.460938 338.414062 370.363281 333.9375 365.890625 L 327.519531 359.472656 C 317.597656 349.550781 302.519531 347.117188 289.875 353.539062 C 283.457031 356.746094 276.839844 359.566406 269.933594 361.804688 C 256.609375 366.183594 247.660156 378.535156 247.660156 392.542969 L 247.660156 401.589844 C 247.660156 408.007812 242.410156 413.164062 236.085938 413.164062 L 214.007812 413.164062 C 207.585938 413.164062 202.429688 407.910156 202.429688 401.589844 L 202.429688 392.542969 C 202.429688 378.535156 193.484375 366.183594 180.15625 361.804688 C 173.347656 359.566406 166.636719 356.746094 160.214844 353.539062 C 155.546875 351.203125 150.488281 350.035156 145.527344 350.035156 C 137.164062 350.035156 128.894531 353.34375 122.671875 359.566406 L 116.25 365.988281 C 111.679688 370.460938 104.382812 370.558594 99.8125 365.988281 L 84.152344 350.328125 C 79.582031 345.757812 79.582031 338.460938 84.152344 333.890625 L 90.574219 327.46875 C 100.492188 317.546875 102.925781 302.472656 96.507812 289.828125 C 93.296875 283.40625 90.476562 276.792969 88.238281 269.886719 C 83.859375 256.5625 71.507812 247.613281 57.5 247.613281 L 48.550781 247.613281 C 42.132812 247.613281 36.976562 242.359375 36.976562 236.039062 L 36.976562 213.957031 C 36.976562 207.539062 42.230469 202.382812 48.550781 202.382812 L 57.5 202.382812 C 71.507812 202.382812 83.859375 193.433594 88.238281 180.109375 C 90.476562 173.300781 93.296875 166.585938 96.507812 160.167969 C 102.828125 147.621094 100.492188 132.542969 90.574219 122.523438 L 84.152344 116.105469 C 79.582031 111.535156 79.582031 104.238281 84.152344 99.667969 L 99.8125 84.007812 C 104.382812 79.433594 111.679688 79.433594 116.25 84.007812 L 122.671875 90.425781 C 132.59375 100.347656 147.765625 102.78125 160.3125 96.359375 C 166.734375 93.148438 173.347656 90.328125 180.253906 88.09375 C 193.578125 83.714844 202.527344 71.363281 202.527344 57.355469 L 202.527344 48.40625 C 202.527344 41.988281 207.78125 36.832031 214.101562 36.832031 L 236.183594 36.832031 C 242.601562 36.832031 247.757812 42.085938 247.757812 48.40625 L 247.757812 57.355469 C 247.757812 71.363281 256.707031 83.714844 270.03125 88.09375 C 276.839844 90.328125 283.554688 93.148438 289.972656 96.359375 C 302.519531 102.683594 317.597656 100.347656 327.617188 90.425781 L 334.035156 84.007812 C 338.507812 79.433594 345.902344 79.433594 350.472656 84.007812 L 366.132812 99.667969 C 370.707031 104.238281 370.707031 111.535156 366.132812 116.105469 L 359.714844 122.523438 C 349.792969 132.445312 347.359375 147.523438 353.78125 160.167969 C 356.992188 166.585938 359.8125 173.203125 362.046875 180.109375 C 366.425781 193.433594 378.777344 202.382812 392.785156 202.382812 L 401.734375 202.382812 C 408.152344 202.382812 413.308594 207.636719 413.308594 213.957031 L 413.308594 235.941406 Z M 413.210938 235.941406 " fill-opacity="1" fill-rule="nonzero"/></g><path fill="#726f6d" d="M 224.996094 115.132812 C 164.496094 115.132812 115.179688 164.351562 115.179688 224.949219 C 115.179688 285.546875 164.496094 334.765625 224.996094 334.765625 C 285.5 334.765625 334.8125 285.449219 334.8125 224.949219 C 334.8125 164.449219 285.5 115.132812 224.996094 115.132812 Z M 224.996094 313.851562 C 175.972656 313.851562 136.09375 273.972656 136.09375 224.949219 C 136.09375 175.925781 175.972656 136.046875 224.996094 136.046875 C 274.019531 136.046875 313.902344 175.925781 313.902344 224.949219 C 313.902344 273.972656 274.019531 313.851562 224.996094 313.851562 Z M 224.996094 313.851562 " fill-opacity="1" fill-rule="nonzero"/></svg>