<svg xmlns="http://www.w3.org/2000/svg" xmlns:xlink="http://www.w3.org/1999/xlink" width="600" zoomAndPan="magnify" viewBox="0 0 450 449.999984" height="600" preserveAspectRatio="xMidYMid meet" version="1.0"><defs><clipPath id="f035b0afa8"><path d="M 141.363281 73.894531 L 151.863281 73.894531 L 151.863281 84.394531 L 141.363281 84.394531 Z M 141.363281 73.894531 " clip-rule="nonzero"/></clipPath></defs><path fill="#726f6d" d="M 374.984375 46.753906 L 83.027344 46.753906 C 82.023438 46.753906 81.019531 46.804688 80.015625 46.902344 C 79.015625 47 78.019531 47.148438 77.03125 47.347656 C 76.046875 47.542969 75.070312 47.785156 74.105469 48.078125 C 73.144531 48.371094 72.195312 48.710938 71.265625 49.09375 C 70.335938 49.480469 69.429688 49.910156 68.539062 50.382812 C 67.652344 50.859375 66.789062 51.375 65.953125 51.933594 C 65.117188 52.496094 64.308594 53.09375 63.53125 53.730469 C 62.75 54.371094 62.007812 55.046875 61.296875 55.757812 C 60.582031 56.46875 59.90625 57.214844 59.269531 57.992188 C 58.628906 58.769531 58.03125 59.578125 57.472656 60.414062 C 56.914062 61.253906 56.394531 62.113281 55.921875 63.003906 C 55.449219 63.890625 55.015625 64.800781 54.632812 65.730469 C 54.246094 66.660156 53.910156 67.605469 53.617188 68.570312 C 53.324219 69.53125 53.078125 70.507812 52.882812 71.496094 C 52.6875 72.484375 52.539062 73.476562 52.441406 74.480469 C 52.34375 75.480469 52.292969 76.484375 52.292969 77.492188 C 52.292969 78.5 52.34375 79.503906 52.441406 80.503906 C 52.539062 81.507812 52.6875 82.5 52.882812 83.488281 C 53.078125 84.476562 53.324219 85.449219 53.617188 86.414062 C 53.910156 87.378906 54.246094 88.324219 54.632812 89.253906 C 55.015625 90.183594 55.449219 91.09375 55.921875 91.980469 C 56.394531 92.867188 56.914062 93.730469 57.472656 94.566406 C 58.03125 95.40625 58.628906 96.210938 59.269531 96.992188 C 59.90625 97.769531 60.582031 98.515625 61.296875 99.226562 C 62.007812 99.9375 62.75 100.613281 63.53125 101.25 C 64.308594 101.890625 65.117188 102.488281 65.953125 103.046875 C 66.789062 103.609375 67.652344 104.125 68.539062 104.597656 C 69.429688 105.074219 70.335938 105.503906 71.265625 105.890625 C 72.195312 106.273438 73.144531 106.613281 74.105469 106.90625 C 75.070312 107.195312 76.046875 107.441406 77.03125 107.636719 C 78.019531 107.835938 79.015625 107.980469 80.015625 108.082031 C 81.019531 108.179688 82.023438 108.226562 83.027344 108.226562 L 374.984375 108.226562 C 375.992188 108.226562 376.996094 108.179688 378 108.082031 C 379 107.980469 379.996094 107.835938 380.980469 107.636719 C 381.96875 107.441406 382.945312 107.195312 383.90625 106.90625 C 384.871094 106.613281 385.816406 106.273438 386.75 105.890625 C 387.679688 105.503906 388.585938 105.074219 389.476562 104.597656 C 390.363281 104.125 391.226562 103.609375 392.0625 103.046875 C 392.898438 102.488281 393.707031 101.890625 394.484375 101.25 C 395.261719 100.613281 396.007812 99.9375 396.71875 99.226562 C 397.429688 98.515625 398.105469 97.769531 398.746094 96.992188 C 399.382812 96.210938 399.984375 95.40625 400.542969 94.566406 C 401.101562 93.730469 401.617188 92.867188 402.09375 91.980469 C 402.566406 91.09375 402.996094 90.183594 403.382812 89.253906 C 403.769531 88.324219 404.105469 87.378906 404.398438 86.414062 C 404.691406 85.449219 404.933594 84.476562 405.132812 83.488281 C 405.328125 82.5 405.476562 81.507812 405.574219 80.503906 C 405.671875 79.503906 405.722656 78.5 405.722656 77.492188 C 405.722656 76.484375 405.671875 75.480469 405.574219 74.480469 C 405.476562 73.476562 405.328125 72.484375 405.132812 71.496094 C 404.933594 70.507812 404.691406 69.53125 404.398438 68.570312 C 404.105469 67.605469 403.769531 66.660156 403.382812 65.730469 C 402.996094 64.800781 402.566406 63.890625 402.09375 63.003906 C 401.617188 62.113281 401.101562 61.253906 400.542969 60.414062 C 399.984375 59.578125 399.382812 58.769531 398.746094 57.992188 C 398.105469 57.214844 397.429688 56.46875 396.71875 55.757812 C 396.007812 55.046875 395.261719 54.371094 394.484375 53.730469 C 393.707031 53.09375 392.898438 52.496094 392.0625 51.933594 C 391.226562 51.375 390.363281 50.859375 389.476562 50.382812 C 388.585938 49.910156 387.679688 49.480469 386.75 49.09375 C 385.816406 48.710938 384.871094 48.371094 383.90625 48.078125 C 382.945312 47.785156 381.96875 47.542969 380.980469 47.347656 C 379.996094 47.148438 379 47.003906 378 46.902344 C 376.996094 46.804688 375.992188 46.753906 374.984375 46.753906 Z M 374.984375 46.753906 " fill-opacity="1" fill-rule="nonzero"/><path fill="#726f6d" d="M 289.425781 200.355469 L 83.191406 200.355469 C 82.183594 200.355469 81.179688 200.40625 80.179688 200.503906 C 79.175781 200.605469 78.183594 200.75 77.195312 200.949219 C 76.207031 201.144531 75.230469 201.386719 74.269531 201.679688 C 73.304688 201.972656 72.359375 202.3125 71.429688 202.695312 C 70.5 203.082031 69.589844 203.511719 68.703125 203.984375 C 67.8125 204.460938 66.953125 204.976562 66.113281 205.535156 C 65.277344 206.097656 64.46875 206.695312 63.691406 207.332031 C 62.914062 207.972656 62.167969 208.648438 61.457031 209.359375 C 60.746094 210.070312 60.070312 210.816406 59.429688 211.59375 C 58.792969 212.371094 58.195312 213.179688 57.636719 214.015625 C 57.074219 214.855469 56.558594 215.714844 56.085938 216.605469 C 55.609375 217.492188 55.179688 218.402344 54.792969 219.332031 C 54.410156 220.261719 54.070312 221.207031 53.777344 222.171875 C 53.484375 223.132812 53.242188 224.109375 53.046875 225.097656 C 52.847656 226.085938 52.703125 227.078125 52.601562 228.082031 C 52.503906 229.082031 52.453125 230.085938 52.453125 231.09375 C 52.453125 232.101562 52.503906 233.105469 52.601562 234.105469 C 52.703125 235.109375 52.847656 236.101562 53.046875 237.089844 C 53.242188 238.078125 53.484375 239.050781 53.777344 240.015625 C 54.070312 240.980469 54.410156 241.925781 54.792969 242.855469 C 55.179688 243.785156 55.609375 244.695312 56.085938 245.582031 C 56.558594 246.46875 57.074219 247.332031 57.636719 248.167969 C 58.195312 249.007812 58.792969 249.8125 59.429688 250.59375 C 60.070312 251.371094 60.746094 252.117188 61.457031 252.828125 C 62.167969 253.539062 62.914062 254.214844 63.691406 254.851562 C 64.46875 255.492188 65.277344 256.089844 66.113281 256.648438 C 66.953125 257.210938 67.8125 257.726562 68.703125 258.199219 C 69.589844 258.675781 70.5 259.105469 71.429688 259.492188 C 72.359375 259.875 73.304688 260.214844 74.269531 260.507812 C 75.230469 260.796875 76.207031 261.042969 77.195312 261.238281 C 78.183594 261.4375 79.175781 261.582031 80.179688 261.683594 C 81.179688 261.78125 82.183594 261.828125 83.191406 261.828125 L 289.425781 261.828125 C 290.433594 261.828125 291.4375 261.78125 292.4375 261.683594 C 293.441406 261.582031 294.433594 261.4375 295.421875 261.238281 C 296.410156 261.042969 297.386719 260.796875 298.347656 260.507812 C 299.3125 260.214844 300.257812 259.875 301.1875 259.492188 C 302.117188 259.105469 303.027344 258.675781 303.914062 258.199219 C 304.804688 257.726562 305.664062 257.210938 306.503906 256.648438 C 307.339844 256.089844 308.148438 255.492188 308.925781 254.851562 C 309.703125 254.214844 310.449219 253.539062 311.160156 252.828125 C 311.871094 252.117188 312.546875 251.371094 313.1875 250.59375 C 313.824219 249.8125 314.421875 249.007812 314.984375 248.167969 C 315.542969 247.332031 316.058594 246.46875 316.535156 245.582031 C 317.007812 244.695312 317.4375 243.785156 317.824219 242.855469 C 318.207031 241.925781 318.546875 240.980469 318.839844 240.015625 C 319.132812 239.050781 319.375 238.078125 319.570312 237.089844 C 319.769531 236.101562 319.917969 235.109375 320.015625 234.105469 C 320.113281 233.105469 320.164062 232.101562 320.164062 231.09375 C 320.164062 230.085938 320.113281 229.082031 320.015625 228.082031 C 319.917969 227.078125 319.769531 226.085938 319.570312 225.097656 C 319.375 224.109375 319.132812 223.132812 318.839844 222.171875 C 318.546875 221.207031 318.207031 220.261719 317.824219 219.332031 C 317.4375 218.402344 317.007812 217.492188 316.535156 216.605469 C 316.058594 215.714844 315.542969 214.855469 314.984375 214.015625 C 314.421875 213.179688 313.824219 212.371094 313.1875 211.59375 C 312.546875 210.816406 311.871094 210.070312 311.160156 209.359375 C 310.449219 208.648438 309.703125 207.972656 308.925781 207.332031 C 308.148438 206.695312 307.339844 206.097656 306.503906 205.535156 C 305.664062 204.976562 304.804688 204.460938 303.914062 203.984375 C 303.027344 203.511719 302.117188 203.082031 301.1875 202.695312 C 300.257812 202.3125 299.3125 201.972656 298.347656 201.679688 C 297.386719 201.386719 296.410156 201.144531 295.421875 200.949219 C 294.433594 200.75 293.441406 200.605469 292.4375 200.503906 C 291.4375 200.40625 290.433594 200.355469 289.425781 200.355469 Z M 289.425781 200.355469 " fill-opacity="1" fill-rule="nonzero"/><path fill="#726f6d" d="M 197.296875 353.957031 L 83.191406 353.957031 C 82.183594 353.957031 81.179688 354.007812 80.179688 354.105469 C 79.175781 354.207031 78.183594 354.351562 77.195312 354.550781 C 76.207031 354.746094 75.230469 354.988281 74.269531 355.28125 C 73.304688 355.574219 72.359375 355.914062 71.429688 356.296875 C 70.5 356.683594 69.589844 357.113281 68.703125 357.585938 C 67.8125 358.0625 66.953125 358.578125 66.113281 359.136719 C 65.277344 359.699219 64.46875 360.296875 63.691406 360.933594 C 62.914062 361.574219 62.167969 362.25 61.457031 362.960938 C 60.746094 363.671875 60.070312 364.417969 59.429688 365.195312 C 58.792969 365.972656 58.195312 366.78125 57.636719 367.617188 C 57.074219 368.457031 56.558594 369.316406 56.085938 370.207031 C 55.609375 371.09375 55.179688 372.003906 54.792969 372.933594 C 54.410156 373.863281 54.070312 374.808594 53.777344 375.773438 C 53.484375 376.734375 53.242188 377.710938 53.046875 378.699219 C 52.847656 379.6875 52.703125 380.679688 52.601562 381.683594 C 52.503906 382.683594 52.453125 383.6875 52.453125 384.695312 C 52.453125 385.703125 52.503906 386.707031 52.601562 387.707031 C 52.703125 388.710938 52.847656 389.703125 53.046875 390.691406 C 53.242188 391.679688 53.484375 392.652344 53.777344 393.617188 C 54.070312 394.582031 54.410156 395.527344 54.792969 396.457031 C 55.179688 397.386719 55.609375 398.296875 56.085938 399.183594 C 56.558594 400.070312 57.074219 400.933594 57.636719 401.769531 C 58.195312 402.609375 58.792969 403.414062 59.429688 404.195312 C 60.070312 404.972656 60.746094 405.71875 61.457031 406.429688 C 62.167969 407.140625 62.914062 407.816406 63.691406 408.453125 C 64.46875 409.09375 65.277344 409.691406 66.113281 410.25 C 66.953125 410.8125 67.8125 411.328125 68.703125 411.800781 C 69.589844 412.277344 70.5 412.707031 71.429688 413.09375 C 72.359375 413.476562 73.304688 413.816406 74.269531 414.109375 C 75.230469 414.402344 76.207031 414.644531 77.195312 414.839844 C 78.183594 415.039062 79.175781 415.183594 80.179688 415.285156 C 81.179688 415.382812 82.183594 415.433594 83.191406 415.433594 L 197.296875 415.433594 C 198.304688 415.433594 199.308594 415.382812 200.308594 415.285156 C 201.3125 415.183594 202.308594 415.039062 203.292969 414.839844 C 204.28125 414.644531 205.257812 414.402344 206.21875 414.109375 C 207.183594 413.816406 208.128906 413.476562 209.058594 413.09375 C 209.988281 412.707031 210.898438 412.277344 211.785156 411.800781 C 212.675781 411.328125 213.535156 410.8125 214.375 410.25 C 215.210938 409.691406 216.019531 409.09375 216.796875 408.453125 C 217.574219 407.816406 218.320312 407.140625 219.03125 406.429688 C 219.742188 405.71875 220.417969 404.972656 221.058594 404.195312 C 221.695312 403.414062 222.296875 402.609375 222.855469 401.769531 C 223.414062 400.933594 223.929688 400.070312 224.40625 399.183594 C 224.878906 398.296875 225.308594 397.386719 225.695312 396.457031 C 226.078125 395.527344 226.417969 394.582031 226.710938 393.617188 C 227.003906 392.652344 227.246094 391.679688 227.445312 390.691406 C 227.640625 389.703125 227.789062 388.710938 227.886719 387.707031 C 227.984375 386.707031 228.035156 385.703125 228.035156 384.695312 C 228.035156 383.6875 227.984375 382.683594 227.886719 381.683594 C 227.789062 380.679688 227.640625 379.6875 227.445312 378.699219 C 227.246094 377.710938 227.003906 376.734375 226.710938 375.773438 C 226.417969 374.808594 226.078125 373.863281 225.695312 372.933594 C 225.308594 372.003906 224.878906 371.09375 224.40625 370.207031 C 223.929688 369.316406 223.414062 368.457031 222.855469 367.617188 C 222.296875 366.78125 221.695312 365.972656 221.058594 365.195312 C 220.417969 364.417969 219.742188 363.671875 219.03125 362.960938 C 218.320312 362.25 217.574219 361.574219 216.796875 360.933594 C 216.019531 360.296875 215.210938 359.699219 214.375 359.136719 C 213.535156 358.578125 212.675781 358.0625 211.785156 357.585938 C 210.898438 357.113281 209.988281 356.683594 209.058594 356.296875 C 208.128906 355.914062 207.183594 355.574219 206.21875 355.28125 C 205.257812 354.988281 204.28125 354.746094 203.292969 354.550781 C 202.308594 354.351562 201.3125 354.207031 200.308594 354.105469 C 199.308594 354.007812 198.304688 353.957031 197.296875 353.957031 Z M 197.296875 353.957031 " fill-opacity="1" fill-rule="nonzero"/><g clip-path="url(#f035b0afa8)"><path fill="#726f6d" d="M 141.398438 73.925781 L 151.515625 73.925781 L 151.515625 84.046875 L 141.398438 84.046875 Z M 141.398438 73.925781 " fill-opacity="1" fill-rule="nonzero"/><path fill="#726f6d" d="M 141.363281 73.894531 L 141.363281 84.078125 L 151.546875 84.078125 L 151.546875 73.894531 Z M 151.484375 84.011719 L 141.429688 84.011719 L 141.429688 73.957031 L 151.484375 73.957031 Z M 151.484375 84.011719 " fill-opacity="1" fill-rule="nonzero"/></g></svg>