<svg xmlns="http://www.w3.org/2000/svg" xmlns:xlink="http://www.w3.org/1999/xlink" width="600" zoomAndPan="magnify" viewBox="0 0 450 449.999984" height="600" preserveAspectRatio="xMidYMid meet" version="1.0"><defs><clipPath id="a041df85fb"><path d="M 182.5 82.878906 L 192.25 82.878906 L 192.25 92.628906 L 182.5 92.628906 Z M 182.5 82.878906 " clip-rule="nonzero"/></clipPath><clipPath id="ac593f9db7"><path d="M 9.320312 50 L 440.570312 50 L 440.570312 411.75 L 9.320312 411.75 Z M 9.320312 50 " clip-rule="nonzero"/></clipPath></defs><g clip-path="url(#a041df85fb)"><path fill="#726f6d" d="M 182.53125 82.910156 L 192.242188 82.910156 L 192.242188 92.621094 L 182.53125 92.621094 Z M 182.53125 82.910156 " fill-opacity="1" fill-rule="nonzero"/><path fill="#726f6d" d="M 182.5 82.878906 L 182.5 92.652344 L 192.273438 92.652344 L 192.273438 82.878906 Z M 192.210938 92.589844 L 182.5625 92.589844 L 182.5625 82.941406 L 192.210938 82.941406 Z M 192.210938 92.589844 " fill-opacity="1" fill-rule="nonzero"/></g><g clip-path="url(#ac593f9db7)"><path fill="#726f6d" d="M 257.808594 402.3125 L 257.808594 314.148438 L 181.859375 314.148438 L 181.859375 402.304688 C 181.859375 402.929688 181.800781 403.550781 181.675781 404.167969 C 181.554688 404.78125 181.375 405.378906 181.136719 405.957031 C 180.894531 406.539062 180.601562 407.089844 180.253906 407.609375 C 179.90625 408.132812 179.511719 408.613281 179.070312 409.058594 C 178.625 409.503906 178.144531 409.898438 177.625 410.25 C 177.105469 410.597656 176.554688 410.894531 175.976562 411.136719 C 175.398438 411.378906 174.800781 411.5625 174.183594 411.683594 C 173.570312 411.808594 172.949219 411.871094 172.324219 411.875 L 71.984375 411.875 C 71.355469 411.875 70.734375 411.8125 70.117188 411.691406 C 69.5 411.566406 68.902344 411.386719 68.324219 411.144531 C 67.746094 410.902344 67.191406 410.609375 66.671875 410.261719 C 66.148438 409.910156 65.667969 409.515625 65.222656 409.070312 C 64.777344 408.628906 64.382812 408.144531 64.035156 407.621094 C 63.683594 407.101562 63.390625 406.550781 63.148438 405.96875 C 62.910156 405.390625 62.726562 404.792969 62.605469 404.175781 C 62.480469 403.5625 62.417969 402.9375 62.417969 402.3125 L 62.417969 228.792969 C 62.417969 228.328125 62.464844 227.867188 62.554688 227.410156 C 62.644531 226.957031 62.78125 226.515625 62.957031 226.085938 C 63.132812 225.65625 63.351562 225.25 63.609375 224.863281 C 63.867188 224.476562 64.160156 224.121094 64.488281 223.792969 C 64.816406 223.464844 65.175781 223.171875 65.5625 222.914062 C 65.945312 222.65625 66.355469 222.4375 66.78125 222.261719 C 67.210938 222.082031 67.652344 221.949219 68.109375 221.859375 C 68.566406 221.765625 69.023438 221.722656 69.488281 221.722656 C 69.953125 221.722656 70.414062 221.765625 70.867188 221.859375 C 71.324219 221.949219 71.765625 222.082031 72.195312 222.261719 C 72.621094 222.4375 73.03125 222.65625 73.417969 222.914062 C 73.800781 223.171875 74.160156 223.464844 74.488281 223.792969 C 74.816406 224.121094 75.109375 224.476562 75.367188 224.863281 C 75.625 225.25 75.84375 225.65625 76.019531 226.085938 C 76.199219 226.515625 76.332031 226.957031 76.421875 227.410156 C 76.511719 227.867188 76.558594 228.328125 76.558594 228.792969 L 76.558594 397.726562 L 167.722656 397.726562 L 167.722656 309.574219 C 167.722656 308.945312 167.785156 308.324219 167.90625 307.707031 C 168.03125 307.09375 168.210938 306.496094 168.453125 305.914062 C 168.691406 305.335938 168.988281 304.785156 169.335938 304.261719 C 169.683594 303.742188 170.082031 303.257812 170.523438 302.8125 C 170.96875 302.371094 171.453125 301.972656 171.972656 301.625 C 172.496094 301.277344 173.046875 300.980469 173.625 300.742188 C 174.207031 300.5 174.804688 300.320312 175.417969 300.195312 C 176.035156 300.074219 176.65625 300.011719 177.285156 300.011719 L 262.429688 300.011719 C 263.054688 300.011719 263.679688 300.074219 264.292969 300.195312 C 264.910156 300.320312 265.507812 300.5 266.085938 300.742188 C 266.667969 300.980469 267.21875 301.277344 267.738281 301.625 C 268.261719 301.972656 268.746094 302.371094 269.1875 302.8125 C 269.632812 303.257812 270.027344 303.742188 270.378906 304.261719 C 270.726562 304.785156 271.019531 305.335938 271.261719 305.914062 C 271.503906 306.496094 271.683594 307.09375 271.808594 307.707031 C 271.929688 308.324219 271.992188 308.945312 271.992188 309.574219 L 271.992188 397.726562 L 363.15625 397.726562 L 363.15625 228.792969 C 363.15625 228.328125 363.199219 227.867188 363.292969 227.410156 C 363.382812 226.957031 363.515625 226.515625 363.695312 226.085938 C 363.871094 225.65625 364.089844 225.25 364.347656 224.863281 C 364.605469 224.476562 364.898438 224.121094 365.226562 223.792969 C 365.554688 223.464844 365.910156 223.171875 366.296875 222.914062 C 366.683594 222.65625 367.089844 222.4375 367.519531 222.261719 C 367.949219 222.082031 368.390625 221.949219 368.84375 221.859375 C 369.300781 221.765625 369.761719 221.722656 370.226562 221.722656 C 370.6875 221.722656 371.148438 221.765625 371.605469 221.859375 C 372.058594 221.949219 372.5 222.082031 372.929688 222.261719 C 373.359375 222.4375 373.765625 222.65625 374.152344 222.914062 C 374.539062 223.171875 374.894531 223.464844 375.222656 223.792969 C 375.550781 224.121094 375.84375 224.476562 376.101562 224.863281 C 376.359375 225.25 376.578125 225.65625 376.757812 226.085938 C 376.933594 226.515625 377.066406 226.957031 377.160156 227.410156 C 377.25 227.867188 377.292969 228.328125 377.292969 228.792969 L 377.292969 402.3125 C 377.292969 402.9375 377.230469 403.5625 377.109375 404.175781 C 376.984375 404.792969 376.804688 405.390625 376.5625 405.96875 C 376.324219 406.550781 376.027344 407.101562 375.679688 407.621094 C 375.332031 408.144531 374.933594 408.628906 374.492188 409.070312 C 374.046875 409.515625 373.5625 409.910156 373.042969 410.261719 C 372.519531 410.609375 371.96875 410.902344 371.390625 411.144531 C 370.808594 411.386719 370.210938 411.566406 369.597656 411.691406 C 368.980469 411.8125 368.359375 411.875 367.730469 411.875 L 267.382812 411.875 C 266.753906 411.875 266.132812 411.8125 265.515625 411.691406 C 264.898438 411.570312 264.300781 411.386719 263.722656 411.148438 C 263.140625 410.90625 262.589844 410.613281 262.066406 410.261719 C 261.542969 409.914062 261.0625 409.519531 260.617188 409.074219 C 260.171875 408.628906 259.777344 408.148438 259.425781 407.625 C 259.078125 407.101562 258.78125 406.550781 258.542969 405.972656 C 258.300781 405.390625 258.117188 404.792969 257.996094 404.175781 C 257.871094 403.5625 257.808594 402.941406 257.808594 402.3125 Z M 428.191406 235.671875 C 428.539062 236.019531 428.917969 236.328125 429.328125 236.597656 C 429.738281 236.863281 430.175781 237.089844 430.632812 237.265625 C 431.089844 237.445312 431.5625 237.574219 432.046875 237.652344 C 432.53125 237.734375 433.019531 237.761719 433.507812 237.738281 C 434 237.71875 434.484375 237.644531 434.960938 237.523438 C 435.433594 237.402344 435.894531 237.230469 436.332031 237.011719 C 436.773438 236.792969 437.1875 236.53125 437.570312 236.230469 C 437.957031 235.925781 438.308594 235.585938 438.621094 235.207031 C 438.9375 234.828125 439.210938 234.425781 439.441406 233.992188 C 439.671875 233.554688 439.851562 233.101562 439.988281 232.632812 C 440.125 232.160156 440.210938 231.679688 440.246094 231.1875 C 440.28125 230.699219 440.265625 230.210938 440.199219 229.722656 C 440.132812 229.234375 440.015625 228.761719 439.851562 228.300781 C 439.6875 227.835938 439.476562 227.394531 439.21875 226.976562 C 438.960938 226.558594 438.664062 226.171875 438.324219 225.8125 C 437.988281 225.457031 437.617188 225.140625 437.210938 224.859375 L 230.917969 52.5 C 230.488281 52.144531 230.035156 51.828125 229.554688 51.550781 C 229.070312 51.273438 228.570312 51.039062 228.046875 50.851562 C 227.523438 50.660156 226.988281 50.519531 226.441406 50.421875 C 225.894531 50.324219 225.339844 50.277344 224.785156 50.277344 C 224.230469 50.277344 223.675781 50.324219 223.128906 50.421875 C 222.582031 50.519531 222.046875 50.660156 221.523438 50.851562 C 221 51.039062 220.496094 51.273438 220.015625 51.550781 C 219.535156 51.828125 219.078125 52.144531 218.652344 52.5 L 12.355469 224.859375 C 12 225.160156 11.675781 225.488281 11.386719 225.847656 C 11.09375 226.210938 10.839844 226.597656 10.625 227.007812 C 10.410156 227.417969 10.234375 227.847656 10.105469 228.292969 C 9.972656 228.738281 9.886719 229.191406 9.847656 229.65625 C 9.804688 230.117188 9.808594 230.578125 9.859375 231.042969 C 9.90625 231.503906 10.003906 231.957031 10.140625 232.398438 C 10.277344 232.839844 10.460938 233.265625 10.683594 233.675781 C 10.90625 234.082031 11.164062 234.464844 11.460938 234.820312 C 11.757812 235.175781 12.089844 235.5 12.449219 235.792969 C 12.8125 236.082031 13.199219 236.335938 13.609375 236.550781 C 14.019531 236.765625 14.449219 236.941406 14.894531 237.070312 C 15.339844 237.203125 15.792969 237.289062 16.257812 237.328125 C 16.71875 237.371094 17.179688 237.367188 17.640625 237.316406 C 18.105469 237.269531 18.554688 237.175781 19 237.035156 C 19.441406 236.898438 19.867188 236.714844 20.273438 236.496094 C 20.683594 236.273438 21.066406 236.011719 21.421875 235.714844 L 224.785156 65.796875 Z M 292.375 73.375 L 345.929688 73.375 L 345.929688 126.929688 C 345.929688 127.394531 345.972656 127.851562 346.066406 128.308594 C 346.15625 128.761719 346.289062 129.207031 346.46875 129.632812 C 346.644531 130.0625 346.863281 130.46875 347.121094 130.855469 C 347.378906 131.242188 347.671875 131.597656 348 131.925781 C 348.328125 132.257812 348.683594 132.550781 349.070312 132.808594 C 349.457031 133.066406 349.863281 133.28125 350.292969 133.460938 C 350.722656 133.636719 351.164062 133.773438 351.621094 133.863281 C 352.074219 133.953125 352.535156 134 353 134 C 353.460938 134 353.921875 133.953125 354.378906 133.863281 C 354.832031 133.773438 355.273438 133.636719 355.703125 133.460938 C 356.132812 133.28125 356.539062 133.066406 356.925781 132.808594 C 357.3125 132.550781 357.667969 132.257812 357.996094 131.925781 C 358.324219 131.597656 358.617188 131.242188 358.875 130.855469 C 359.132812 130.46875 359.351562 130.0625 359.53125 129.632812 C 359.707031 129.207031 359.839844 128.761719 359.933594 128.308594 C 360.023438 127.851562 360.066406 127.394531 360.066406 126.929688 L 360.066406 68.800781 C 360.066406 68.171875 360.003906 67.550781 359.882812 66.933594 C 359.761719 66.316406 359.578125 65.71875 359.335938 65.140625 C 359.097656 64.5625 358.800781 64.011719 358.453125 63.488281 C 358.105469 62.964844 357.707031 62.484375 357.265625 62.039062 C 356.820312 61.59375 356.335938 61.199219 355.816406 60.851562 C 355.292969 60.5 354.742188 60.207031 354.164062 59.964844 C 353.582031 59.726562 352.984375 59.542969 352.371094 59.421875 C 351.753906 59.296875 351.132812 59.234375 350.503906 59.234375 L 292.375 59.234375 C 291.910156 59.234375 291.449219 59.28125 290.996094 59.371094 C 290.539062 59.460938 290.097656 59.59375 289.667969 59.773438 C 289.238281 59.949219 288.832031 60.167969 288.445312 60.425781 C 288.058594 60.683594 287.703125 60.976562 287.375 61.304688 C 287.046875 61.632812 286.753906 61.992188 286.496094 62.375 C 286.238281 62.761719 286.019531 63.171875 285.839844 63.597656 C 285.664062 64.027344 285.527344 64.46875 285.4375 64.925781 C 285.347656 65.382812 285.300781 65.839844 285.300781 66.304688 C 285.300781 66.769531 285.347656 67.230469 285.4375 67.683594 C 285.527344 68.140625 285.664062 68.582031 285.839844 69.011719 C 286.019531 69.441406 286.238281 69.847656 286.496094 70.234375 C 286.753906 70.621094 287.046875 70.976562 287.375 71.304688 C 287.703125 71.632812 288.058594 71.925781 288.445312 72.183594 C 288.832031 72.441406 289.238281 72.660156 289.667969 72.835938 C 290.097656 73.015625 290.539062 73.148438 290.996094 73.238281 C 291.449219 73.328125 291.910156 73.375 292.375 73.375 Z M 292.375 73.375 " fill-opacity="1" fill-rule="nonzero"/></g></svg>