<svg xmlns="http://www.w3.org/2000/svg" xmlns:xlink="http://www.w3.org/1999/xlink" width="600" zoomAndPan="magnify" viewBox="0 0 450 449.999984" height="600" preserveAspectRatio="xMidYMid meet" version="1.0"><defs><clipPath id="e54da4ef80"><path d="M 115.3125 45 L 125.0625 45 L 125.0625 54.75 L 115.3125 54.75 Z M 115.3125 45 " clip-rule="nonzero"/></clipPath></defs><g clip-path="url(#e54da4ef80)"><path fill="#726f6d" d="M 115.34375 45.03125 L 125.058594 45.03125 L 125.058594 54.742188 L 115.34375 54.742188 Z M 115.34375 45.03125 " fill-opacity="1" fill-rule="nonzero"/><path fill="#726f6d" d="M 115.3125 45 L 115.3125 54.773438 L 125.085938 54.773438 L 125.085938 45 Z M 125.027344 54.710938 L 115.375 54.710938 L 115.375 45.0625 L 125.027344 45.0625 Z M 125.027344 54.710938 " fill-opacity="1" fill-rule="nonzero"/></g><path fill="#6f6961" d="M 220.78125 11.066406 C 216.246094 11.058594 211.714844 11.203125 207.191406 11.5 C 202.664062 11.792969 198.152344 12.234375 193.65625 12.828125 C 189.160156 13.417969 184.6875 14.160156 180.242188 15.046875 C 175.792969 15.933594 171.378906 16.96875 167 18.148438 C 162.621094 19.328125 158.285156 20.648438 153.996094 22.117188 C 149.703125 23.582031 145.464844 25.1875 141.277344 26.933594 C 137.09375 28.679688 132.96875 30.5625 128.90625 32.582031 C 124.847656 34.601562 120.855469 36.75 116.9375 39.03125 C 113.019531 41.316406 109.179688 43.726562 105.417969 46.261719 C 101.660156 48.796875 97.988281 51.457031 94.402344 54.234375 C 90.820312 57.015625 87.332031 59.910156 83.9375 62.917969 C 80.546875 65.925781 77.253906 69.046875 74.070312 72.273438 C 70.882812 75.5 67.804688 78.828125 64.839844 82.257812 C 61.871094 85.691406 59.023438 89.214844 56.289062 92.832031 C 53.554688 96.453125 50.945312 100.15625 48.457031 103.949219 C 45.964844 107.742188 43.605469 111.609375 41.375 115.558594 C 39.140625 119.507812 37.039062 123.523438 35.074219 127.609375 C 33.105469 131.695312 31.273438 135.84375 29.582031 140.050781 C 27.890625 144.257812 26.335938 148.515625 24.925781 152.828125 C 23.511719 157.136719 22.246094 161.488281 21.121094 165.882812 C 19.996094 170.277344 19.019531 174.703125 18.1875 179.160156 C 17.355469 183.617188 16.675781 188.101562 16.140625 192.605469 C 15.605469 197.105469 15.21875 201.625 14.980469 206.152344 C 14.746094 210.683594 14.65625 215.214844 14.71875 219.75 C 14.785156 224.285156 14.996094 228.8125 15.359375 233.332031 C 15.722656 237.851562 16.230469 242.355469 16.890625 246.84375 C 17.550781 251.332031 18.359375 255.792969 19.3125 260.226562 C 20.269531 264.660156 21.371094 269.054688 22.613281 273.417969 C 23.859375 277.777344 25.25 282.09375 26.78125 286.363281 C 28.308594 290.632812 29.980469 294.84375 31.789062 299.003906 C 33.597656 303.164062 35.542969 307.257812 37.625 311.289062 C 39.703125 315.316406 41.914062 319.273438 44.257812 323.160156 L 15.199219 410.3125 C 15.078125 410.679688 14.976562 411.050781 14.898438 411.429688 C 14.820312 411.8125 14.765625 412.195312 14.734375 412.578125 C 14.699219 412.964844 14.691406 413.351562 14.703125 413.738281 C 14.714844 414.125 14.753906 414.511719 14.8125 414.894531 C 14.871094 415.277344 14.949219 415.65625 15.054688 416.027344 C 15.15625 416.402344 15.28125 416.769531 15.429688 417.125 C 15.574219 417.484375 15.742188 417.832031 15.929688 418.171875 C 16.117188 418.511719 16.328125 418.839844 16.554688 419.152344 C 16.78125 419.464844 17.023438 419.765625 17.285156 420.050781 C 17.546875 420.335938 17.824219 420.605469 18.121094 420.859375 C 18.414062 421.109375 18.722656 421.34375 19.042969 421.5625 C 19.363281 421.777344 19.699219 421.972656 20.042969 422.148438 C 20.386719 422.328125 20.742188 422.480469 21.105469 422.617188 C 21.46875 422.75 21.835938 422.863281 22.214844 422.953125 C 22.589844 423.046875 22.972656 423.113281 23.355469 423.160156 C 23.742188 423.207031 24.125 423.230469 24.515625 423.230469 C 25.578125 423.230469 26.613281 423.0625 27.621094 422.722656 L 114.769531 393.671875 C 118.160156 395.707031 121.601562 397.644531 125.101562 399.480469 C 128.601562 401.320312 132.152344 403.054688 135.753906 404.6875 C 139.351562 406.320312 142.996094 407.847656 146.683594 409.269531 C 150.371094 410.695312 154.097656 412.011719 157.859375 413.21875 C 161.625 414.425781 165.417969 415.527344 169.246094 416.515625 C 173.070312 417.507812 176.921875 418.386719 180.800781 419.15625 C 184.679688 419.921875 188.574219 420.582031 192.488281 421.125 C 196.40625 421.667969 200.332031 422.101562 204.273438 422.417969 C 208.210938 422.734375 212.15625 422.941406 216.109375 423.03125 C 220.0625 423.121094 224.011719 423.101562 227.960938 422.964844 C 231.914062 422.828125 235.855469 422.578125 239.792969 422.214844 C 243.726562 421.851562 247.648438 421.375 251.558594 420.785156 C 255.46875 420.195312 259.355469 419.496094 263.222656 418.683594 C 267.09375 417.871094 270.933594 416.945312 274.75 415.910156 C 278.5625 414.878906 282.347656 413.734375 286.09375 412.484375 C 289.84375 411.230469 293.554688 409.871094 297.226562 408.40625 C 300.898438 406.941406 304.523438 405.371094 308.101562 403.699219 C 311.683594 402.023438 315.214844 400.25 318.691406 398.371094 C 322.171875 396.496094 325.59375 394.519531 328.957031 392.445312 C 332.320312 390.371094 335.625 388.199219 338.863281 385.9375 C 342.105469 383.671875 345.277344 381.316406 348.378906 378.871094 C 351.484375 376.421875 354.515625 373.890625 357.472656 371.269531 C 360.433594 368.648438 363.3125 365.941406 366.117188 363.15625 C 368.917969 360.367188 371.640625 357.503906 374.277344 354.558594 C 376.914062 351.613281 379.464844 348.597656 381.929688 345.507812 C 384.394531 342.417969 386.769531 339.257812 389.050781 336.03125 C 391.332031 332.804688 393.519531 329.511719 395.613281 326.160156 C 397.707031 322.808594 399.703125 319.398438 401.597656 315.929688 C 403.496094 312.460938 405.289062 308.941406 406.984375 305.371094 C 408.679688 301.796875 410.269531 298.183594 411.753906 294.519531 C 413.238281 290.855469 414.621094 287.152344 415.890625 283.410156 C 417.164062 279.667969 418.328125 275.894531 419.382812 272.085938 C 420.441406 268.273438 421.386719 264.4375 422.21875 260.574219 C 423.054688 256.710938 423.777344 252.828125 424.386719 248.921875 C 425 245.015625 425.496094 241.097656 425.882812 237.164062 C 426.269531 233.230469 426.539062 229.289062 426.699219 225.339844 C 426.855469 221.390625 426.902344 217.4375 426.832031 213.484375 C 426.765625 209.535156 426.582031 205.585938 426.285156 201.644531 C 425.988281 197.703125 425.582031 193.773438 425.058594 189.855469 C 424.535156 185.9375 423.902344 182.039062 423.15625 178.15625 C 422.40625 174.273438 421.550781 170.417969 420.582031 166.585938 C 419.613281 162.753906 418.535156 158.953125 417.347656 155.183594 C 416.160156 151.414062 414.863281 147.679688 413.460938 143.984375 C 412.058594 140.289062 410.550781 136.636719 408.9375 133.027344 C 407.328125 129.417969 405.613281 125.859375 403.792969 122.347656 C 401.976562 118.839844 400.058594 115.382812 398.042969 111.984375 C 396.027344 108.585938 393.914062 105.246094 391.707031 101.96875 C 389.496094 98.691406 387.195312 95.476562 384.804688 92.332031 C 382.410156 89.1875 379.925781 86.113281 377.355469 83.109375 C 374.785156 80.105469 372.132812 77.179688 369.394531 74.328125 C 366.652344 71.480469 363.835938 68.710938 360.9375 66.023438 C 358.039062 63.335938 355.066406 60.734375 352.019531 58.214844 C 348.96875 55.699219 345.851562 53.273438 342.664062 50.9375 C 339.476562 48.597656 336.222656 46.355469 332.90625 44.207031 C 329.589844 42.054688 326.214844 40.003906 322.78125 38.046875 C 319.34375 36.089844 315.855469 34.234375 312.3125 32.480469 C 308.773438 30.726562 305.183594 29.074219 301.546875 27.527344 C 297.910156 25.976562 294.230469 24.535156 290.511719 23.199219 C 286.792969 21.863281 283.035156 20.632812 279.246094 19.515625 C 275.453125 18.394531 271.636719 17.382812 267.785156 16.484375 C 263.9375 15.582031 260.066406 14.792969 256.171875 14.117188 C 252.277344 13.4375 248.367188 12.875 244.441406 12.421875 C 240.511719 11.96875 236.578125 11.628906 232.632812 11.402344 C 228.683594 11.175781 224.734375 11.066406 220.78125 11.066406 Z M 220.78125 403.601562 C 212.015625 403.597656 203.289062 402.972656 194.609375 401.730469 C 185.929688 400.488281 177.382812 398.644531 168.964844 396.191406 C 160.546875 393.738281 152.339844 390.707031 144.351562 387.09375 C 136.363281 383.480469 128.667969 379.324219 121.269531 374.621094 C 119.664062 373.605469 117.914062 373.097656 116.015625 373.097656 C 114.953125 373.097656 113.917969 373.265625 112.910156 373.605469 L 40.019531 397.898438 L 64.324219 325.019531 C 64.785156 323.621094 64.925781 322.1875 64.75 320.726562 C 64.570312 319.265625 64.089844 317.910156 63.308594 316.660156 C 61.484375 313.773438 59.746094 310.839844 58.085938 307.855469 C 56.425781 304.871094 54.851562 301.84375 53.355469 298.773438 C 51.863281 295.703125 50.457031 292.59375 49.132812 289.449219 C 47.8125 286.300781 46.578125 283.117188 45.429688 279.902344 C 44.28125 276.6875 43.222656 273.445312 42.253906 270.171875 C 41.285156 266.894531 40.40625 263.597656 39.617188 260.277344 C 38.832031 256.953125 38.132812 253.613281 37.53125 250.253906 C 36.925781 246.894531 36.414062 243.519531 35.996094 240.132812 C 35.578125 236.742188 35.25 233.347656 35.019531 229.941406 C 34.789062 226.535156 34.648438 223.125 34.605469 219.710938 C 34.558594 216.296875 34.609375 212.882812 34.753906 209.472656 C 34.894531 206.0625 35.132812 202.65625 35.460938 199.257812 C 35.792969 195.863281 36.214844 192.476562 36.730469 189.101562 C 37.25 185.726562 37.855469 182.367188 38.558594 179.027344 C 39.257812 175.683594 40.050781 172.367188 40.933594 169.066406 C 41.816406 165.769531 42.789062 162.5 43.855469 159.253906 C 44.917969 156.011719 46.070312 152.796875 47.308594 149.617188 C 48.546875 146.4375 49.875 143.292969 51.285156 140.183594 C 52.699219 137.074219 54.195312 134.007812 55.777344 130.984375 C 57.359375 127.957031 59.023438 124.976562 60.765625 122.042969 C 62.511719 119.109375 64.335938 116.222656 66.238281 113.390625 C 68.144531 110.554688 70.125 107.777344 72.179688 105.050781 C 74.234375 102.324219 76.367188 99.660156 78.570312 97.050781 C 80.773438 94.441406 83.042969 91.898438 85.386719 89.414062 C 87.730469 86.929688 90.140625 84.515625 92.613281 82.164062 C 95.089844 79.8125 97.628906 77.53125 100.230469 75.320312 C 102.832031 73.109375 105.492188 70.96875 108.210938 68.90625 C 110.929688 66.839844 113.703125 64.851562 116.53125 62.9375 C 119.359375 61.027344 122.234375 59.191406 125.164062 57.4375 C 128.09375 55.683594 131.070312 54.011719 134.089844 52.421875 C 137.109375 50.828125 140.171875 49.324219 143.277344 47.902344 C 146.378906 46.476562 149.519531 45.140625 152.695312 43.890625 C 155.875 42.640625 159.082031 41.480469 162.324219 40.40625 C 165.5625 39.332031 168.832031 38.347656 172.125 37.457031 C 175.421875 36.5625 178.738281 35.757812 182.078125 35.046875 C 185.417969 34.335938 188.773438 33.714844 192.144531 33.1875 C 195.519531 32.660156 198.902344 32.226562 202.300781 31.886719 C 205.699219 31.546875 209.101562 31.296875 212.511719 31.144531 C 215.921875 30.992188 219.335938 30.929688 222.75 30.964844 C 226.160156 30.996094 229.574219 31.125 232.980469 31.347656 C 236.386719 31.566406 239.785156 31.882812 243.175781 32.289062 C 246.5625 32.699219 249.9375 33.199219 253.300781 33.792969 C 256.664062 34.386719 260.007812 35.070312 263.332031 35.847656 C 266.65625 36.625 269.957031 37.492188 273.230469 38.453125 C 276.507812 39.410156 279.757812 40.457031 282.976562 41.59375 C 286.195312 42.730469 289.378906 43.957031 292.53125 45.269531 C 295.683594 46.582031 298.796875 47.980469 301.871094 49.460938 C 304.945312 50.945312 307.980469 52.511719 310.96875 54.164062 C 313.957031 55.8125 316.898438 57.542969 319.789062 59.355469 C 322.683594 61.167969 325.527344 63.058594 328.316406 65.023438 C 331.105469 66.992188 333.839844 69.035156 336.515625 71.15625 C 339.195312 73.273438 341.8125 75.464844 344.367188 77.726562 C 346.925781 79.988281 349.417969 82.316406 351.847656 84.714844 C 354.277344 87.117188 356.636719 89.578125 358.929688 92.109375 C 361.222656 94.636719 363.445312 97.226562 365.597656 99.878906 C 367.75 102.53125 369.824219 105.238281 371.828125 108.003906 C 373.832031 110.769531 375.753906 113.585938 377.601562 116.457031 C 379.449219 119.328125 381.214844 122.25 382.902344 125.214844 C 384.589844 128.183594 386.195312 131.195312 387.714844 134.253906 C 389.238281 137.308594 390.671875 140.40625 392.023438 143.539062 C 393.375 146.675781 394.640625 149.847656 395.816406 153.050781 C 396.992188 156.253906 398.082031 159.488281 399.082031 162.753906 C 400.078125 166.019531 400.988281 169.308594 401.804688 172.621094 C 402.625 175.9375 403.351562 179.273438 403.984375 182.625 C 404.621094 185.980469 405.164062 189.351562 405.613281 192.734375 C 406.0625 196.117188 406.417969 199.511719 406.683594 202.917969 C 406.945312 206.320312 407.113281 209.730469 407.191406 213.140625 C 407.265625 216.554688 407.25 219.96875 407.136719 223.378906 C 407.023438 226.792969 406.820312 230.199219 406.519531 233.601562 C 406.222656 237 405.828125 240.390625 405.34375 243.769531 C 404.859375 247.148438 404.28125 250.511719 403.609375 253.859375 C 402.941406 257.207031 402.179688 260.535156 401.324219 263.839844 C 400.472656 267.144531 399.527344 270.425781 398.496094 273.679688 C 397.460938 276.933594 396.339844 280.15625 395.128906 283.347656 C 393.917969 286.539062 392.621094 289.695312 391.238281 292.816406 C 389.851562 295.9375 388.382812 299.019531 386.832031 302.058594 C 385.277344 305.097656 383.640625 308.09375 381.921875 311.042969 C 380.207031 313.996094 378.40625 316.894531 376.53125 319.746094 C 374.652344 322.597656 372.699219 325.394531 370.667969 328.140625 C 368.636719 330.882812 366.53125 333.570312 364.351562 336.199219 C 362.171875 338.828125 359.921875 341.394531 357.601562 343.898438 C 355.28125 346.402344 352.894531 348.839844 350.441406 351.214844 C 347.988281 353.585938 345.46875 355.890625 342.890625 358.125 C 340.308594 360.363281 337.667969 362.523438 334.96875 364.613281 C 332.269531 366.703125 329.515625 368.71875 326.703125 370.65625 C 323.894531 372.59375 321.03125 374.453125 318.121094 376.234375 C 315.207031 378.015625 312.246094 379.714844 309.242188 381.335938 C 306.234375 382.953125 303.1875 384.488281 300.097656 385.9375 C 297.007812 387.390625 293.878906 388.753906 290.714844 390.035156 C 287.546875 391.3125 284.351562 392.503906 281.117188 393.605469 C 277.886719 394.710938 274.628906 395.722656 271.34375 396.648438 C 268.054688 397.570312 264.746094 398.40625 261.414062 399.148438 C 258.082031 399.890625 254.730469 400.539062 251.363281 401.097656 C 247.996094 401.65625 244.613281 402.121094 241.222656 402.492188 C 237.828125 402.863281 234.425781 403.144531 231.015625 403.328125 C 227.609375 403.511719 224.195312 403.605469 220.78125 403.601562 Z M 230.597656 325.09375 C 230.597656 325.738281 230.53125 326.378906 230.40625 327.007812 C 230.28125 327.640625 230.09375 328.253906 229.847656 328.851562 C 229.601562 329.445312 229.300781 330.011719 228.941406 330.546875 C 228.585938 331.082031 228.175781 331.578125 227.722656 332.035156 C 227.265625 332.488281 226.769531 332.894531 226.234375 333.253906 C 225.699219 333.613281 225.132812 333.914062 224.539062 334.160156 C 223.941406 334.40625 223.328125 334.59375 222.695312 334.71875 C 222.066406 334.84375 221.425781 334.910156 220.78125 334.910156 C 220.136719 334.910156 219.5 334.84375 218.867188 334.71875 C 218.234375 334.59375 217.621094 334.40625 217.027344 334.160156 C 216.433594 333.914062 215.867188 333.613281 215.332031 333.253906 C 214.792969 332.894531 214.300781 332.488281 213.84375 332.035156 C 213.386719 331.578125 212.980469 331.082031 212.621094 330.546875 C 212.265625 330.011719 211.960938 329.445312 211.714844 328.851562 C 211.46875 328.253906 211.285156 327.640625 211.15625 327.007812 C 211.03125 326.378906 210.96875 325.738281 210.96875 325.09375 C 210.96875 324.449219 211.03125 323.8125 211.15625 323.179688 C 211.285156 322.546875 211.46875 321.933594 211.714844 321.339844 C 211.960938 320.742188 212.265625 320.179688 212.621094 319.644531 C 212.980469 319.105469 213.386719 318.613281 213.84375 318.15625 C 214.300781 317.699219 214.792969 317.292969 215.332031 316.933594 C 215.867188 316.578125 216.433594 316.273438 217.027344 316.027344 C 217.621094 315.78125 218.234375 315.597656 218.867188 315.46875 C 219.5 315.34375 220.136719 315.28125 220.78125 315.28125 C 221.425781 315.28125 222.066406 315.34375 222.695312 315.46875 C 223.328125 315.597656 223.941406 315.78125 224.539062 316.027344 C 225.132812 316.273438 225.699219 316.578125 226.234375 316.933594 C 226.769531 317.292969 227.265625 317.699219 227.722656 318.15625 C 228.175781 318.613281 228.582031 319.105469 228.941406 319.644531 C 229.300781 320.179688 229.601562 320.742188 229.847656 321.339844 C 230.09375 321.933594 230.28125 322.546875 230.40625 323.179688 C 230.53125 323.8125 230.597656 324.449219 230.597656 325.09375 Z M 288.382812 165.523438 C 288.699219 167.28125 288.941406 169.050781 289.117188 170.828125 C 289.296875 172.605469 289.402344 174.386719 289.441406 176.175781 C 289.480469 177.960938 289.449219 179.746094 289.347656 181.53125 C 289.246094 183.316406 289.078125 185.09375 288.839844 186.863281 C 288.601562 188.632812 288.296875 190.394531 287.921875 192.140625 C 287.546875 193.886719 287.105469 195.617188 286.597656 197.332031 C 286.089844 199.042969 285.515625 200.734375 284.875 202.402344 C 284.234375 204.070312 283.53125 205.714844 282.765625 207.328125 C 282 208.941406 281.171875 210.523438 280.28125 212.074219 C 279.390625 213.621094 278.441406 215.136719 277.4375 216.613281 C 276.429688 218.085938 275.367188 219.523438 274.25 220.917969 C 273.128906 222.308594 271.960938 223.660156 270.738281 224.960938 C 269.515625 226.265625 268.242188 227.519531 266.921875 228.722656 C 265.601562 229.929688 264.238281 231.078125 262.828125 232.179688 C 261.421875 233.277344 259.96875 234.320312 258.480469 235.304688 C 256.992188 236.292969 255.464844 237.21875 253.902344 238.085938 C 252.210938 238.925781 250.585938 239.875 249.019531 240.933594 C 247.457031 241.992188 245.972656 243.148438 244.566406 244.410156 C 243.160156 245.667969 241.84375 247.015625 240.617188 248.453125 C 239.390625 249.886719 238.269531 251.398438 237.246094 252.988281 C 236.226562 254.574219 235.316406 256.222656 234.515625 257.933594 C 233.71875 259.644531 233.039062 261.402344 232.476562 263.203125 C 231.914062 265.007812 231.476562 266.839844 231.160156 268.699219 C 230.847656 270.5625 230.65625 272.433594 230.597656 274.320312 C 230.605469 274.988281 230.546875 275.652344 230.429688 276.308594 C 230.3125 276.964844 230.136719 277.605469 229.894531 278.230469 C 229.65625 278.851562 229.363281 279.445312 229.011719 280.015625 C 228.660156 280.582031 228.257812 281.109375 227.804688 281.601562 C 227.351562 282.09375 226.859375 282.539062 226.324219 282.933594 C 225.785156 283.332031 225.21875 283.675781 224.617188 283.964844 C 224.015625 284.253906 223.394531 284.488281 222.75 284.660156 C 222.101562 284.832031 221.449219 284.941406 220.78125 284.988281 C 220.160156 285.035156 219.542969 285.019531 218.925781 284.941406 C 218.308594 284.863281 217.703125 284.722656 217.117188 284.519531 C 216.527344 284.316406 215.964844 284.054688 215.429688 283.738281 C 214.894531 283.417969 214.398438 283.050781 213.9375 282.632812 C 213.476562 282.210938 213.066406 281.75 212.699219 281.246094 C 212.335938 280.742188 212.023438 280.203125 211.769531 279.636719 C 211.515625 279.070312 211.320312 278.480469 211.183594 277.875 C 211.050781 277.265625 210.976562 276.648438 210.96875 276.027344 L 210.96875 274.320312 C 211.023438 271.558594 211.261719 268.8125 211.6875 266.082031 C 212.113281 263.351562 212.722656 260.664062 213.511719 258.015625 C 214.300781 255.367188 215.265625 252.785156 216.402344 250.265625 C 217.539062 247.75 218.84375 245.320312 220.308594 242.976562 C 221.777344 240.636719 223.394531 238.402344 225.164062 236.28125 C 226.929688 234.15625 228.835938 232.164062 230.871094 230.296875 C 232.910156 228.433594 235.066406 226.710938 237.335938 225.136719 C 239.605469 223.5625 241.972656 222.148438 244.433594 220.894531 C 245.691406 220.203125 246.917969 219.457031 248.109375 218.65625 C 249.300781 217.859375 250.457031 217.007812 251.574219 216.109375 C 252.691406 215.207031 253.769531 214.261719 254.804688 213.265625 C 255.835938 212.269531 256.828125 211.230469 257.769531 210.148438 C 258.714844 209.066406 259.609375 207.945312 260.453125 206.785156 C 261.296875 205.625 262.089844 204.429688 262.832031 203.203125 C 263.570312 201.972656 264.257812 200.710938 264.886719 199.421875 C 265.515625 198.132812 266.085938 196.816406 266.601562 195.476562 C 267.117188 194.136719 267.570312 192.777344 267.964844 191.394531 C 268.359375 190.015625 268.695312 188.621094 268.964844 187.210938 C 269.238281 185.804688 269.449219 184.382812 269.597656 182.957031 C 269.746094 181.527344 269.832031 180.097656 269.851562 178.660156 C 269.875 177.226562 269.835938 175.792969 269.730469 174.363281 C 269.628906 172.929688 269.460938 171.503906 269.234375 170.089844 C 269.003906 168.671875 268.714844 167.265625 268.363281 165.875 C 268.011719 164.484375 267.601562 163.109375 267.128906 161.753906 C 266.65625 160.398438 266.125 159.066406 265.535156 157.757812 C 264.945312 156.449219 264.300781 155.167969 263.601562 153.914062 C 262.898438 152.664062 262.144531 151.445312 261.335938 150.257812 C 260.527344 149.070312 259.667969 147.921875 258.757812 146.8125 C 257.847656 145.703125 256.894531 144.632812 255.890625 143.605469 C 254.886719 142.578125 253.839844 141.597656 252.753906 140.664062 C 251.664062 139.730469 250.535156 138.84375 249.367188 138.007812 C 248.203125 137.171875 247 136.386719 245.765625 135.65625 C 244.527344 134.925781 243.265625 134.25 241.96875 133.632812 C 240.675781 133.011719 239.355469 132.449219 238.011719 131.945312 C 236.667969 131.441406 235.304688 131 233.917969 130.613281 C 232.535156 130.230469 231.140625 129.90625 229.726562 129.644531 C 228.316406 129.382812 226.898438 129.183594 225.46875 129.046875 C 224.039062 128.910156 222.605469 128.835938 221.171875 128.824219 C 219.734375 128.816406 218.304688 128.867188 216.871094 128.980469 C 215.441406 129.09375 214.019531 129.273438 212.601562 129.511719 C 211.1875 129.75 209.785156 130.050781 208.394531 130.414062 C 207.007812 130.777344 205.636719 131.199219 204.285156 131.683594 C 202.933594 132.164062 201.605469 132.707031 200.300781 133.304688 C 198.996094 133.90625 197.722656 134.558594 196.472656 135.269531 C 195.226562 135.980469 194.015625 136.746094 192.835938 137.5625 C 191.65625 138.382812 190.511719 139.25 189.410156 140.167969 C 188.304688 141.085938 187.246094 142.050781 186.226562 143.0625 C 185.207031 144.070312 184.234375 145.125 183.308594 146.222656 C 182.378906 147.316406 181.503906 148.453125 180.675781 149.625 C 179.851562 150.800781 179.074219 152.007812 178.355469 153.25 C 177.632812 154.488281 176.96875 155.761719 176.359375 157.058594 C 175.75 158.359375 175.199219 159.683594 174.703125 161.03125 C 174.210938 162.378906 173.777344 163.746094 173.40625 165.132812 C 173.03125 166.519531 172.71875 167.917969 172.46875 169.332031 C 172.21875 170.746094 172.03125 172.164062 171.902344 173.597656 C 171.777344 175.027344 171.714844 176.457031 171.714844 177.894531 C 171.714844 178.539062 171.652344 179.175781 171.527344 179.808594 C 171.402344 180.441406 171.214844 181.054688 170.96875 181.648438 C 170.722656 182.246094 170.417969 182.808594 170.0625 183.347656 C 169.703125 183.882812 169.296875 184.378906 168.839844 184.832031 C 168.386719 185.289062 167.890625 185.695312 167.355469 186.054688 C 166.816406 186.410156 166.253906 186.714844 165.65625 186.960938 C 165.0625 187.207031 164.449219 187.394531 163.816406 187.519531 C 163.183594 187.644531 162.546875 187.707031 161.902344 187.707031 C 161.257812 187.707031 160.621094 187.644531 159.988281 187.519531 C 159.355469 187.394531 158.742188 187.207031 158.148438 186.960938 C 157.550781 186.714844 156.984375 186.410156 156.449219 186.054688 C 155.914062 185.695312 155.417969 185.289062 154.960938 184.832031 C 154.507812 184.378906 154.101562 183.882812 153.742188 183.347656 C 153.382812 182.808594 153.082031 182.246094 152.835938 181.648438 C 152.589844 181.054688 152.402344 180.441406 152.277344 179.808594 C 152.152344 179.175781 152.089844 178.539062 152.089844 177.894531 C 152.085938 175.773438 152.183594 173.65625 152.378906 171.542969 C 152.574219 169.433594 152.867188 167.335938 153.257812 165.25 C 153.648438 163.164062 154.132812 161.101562 154.710938 159.0625 C 155.292969 157.023438 155.964844 155.015625 156.734375 153.035156 C 157.5 151.058594 158.355469 149.121094 159.300781 147.222656 C 160.246094 145.324219 161.277344 143.472656 162.398438 141.671875 C 163.515625 139.867188 164.710938 138.121094 165.992188 136.429688 C 167.269531 134.738281 168.625 133.109375 170.054688 131.542969 C 171.484375 129.976562 172.984375 128.480469 174.554688 127.050781 C 176.121094 125.625 177.753906 124.273438 179.445312 122.996094 C 181.140625 121.71875 182.890625 120.523438 184.695312 119.410156 C 186.5 118.296875 188.351562 117.265625 190.25 116.324219 C 192.152344 115.378906 194.089844 114.527344 196.070312 113.765625 C 198.046875 113 200.058594 112.332031 202.097656 111.753906 C 204.140625 111.175781 206.203125 110.695312 208.289062 110.308594 C 210.371094 109.921875 212.472656 109.632812 214.585938 109.441406 C 216.695312 109.25 218.8125 109.15625 220.933594 109.160156 C 223.054688 109.164062 225.171875 109.265625 227.28125 109.46875 C 229.394531 109.667969 231.492188 109.964844 233.574219 110.359375 C 235.660156 110.753906 237.71875 111.246094 239.757812 111.828125 C 241.796875 112.414062 243.804688 113.09375 245.78125 113.863281 C 247.757812 114.636719 249.691406 115.496094 251.585938 116.449219 C 253.484375 117.398438 255.332031 118.433594 257.132812 119.554688 C 258.933594 120.675781 260.675781 121.878906 262.363281 123.164062 C 264.054688 124.445312 265.679688 125.804688 267.242188 127.238281 C 268.804688 128.671875 270.296875 130.175781 271.722656 131.746094 C 273.144531 133.320312 274.492188 134.953125 275.765625 136.652344 C 277.039062 138.347656 278.230469 140.097656 279.339844 141.90625 C 280.449219 143.714844 281.472656 145.570312 282.414062 147.46875 C 283.351562 149.371094 284.199219 151.3125 284.957031 153.292969 C 285.714844 155.273438 286.382812 157.285156 286.953125 159.328125 C 287.527344 161.371094 288.003906 163.433594 288.382812 165.523438 Z M 288.382812 165.523438 " fill-opacity="1" fill-rule="nonzero"/></svg>