<svg xmlns="http://www.w3.org/2000/svg" xmlns:xlink="http://www.w3.org/1999/xlink" width="600" zoomAndPan="magnify" viewBox="0 0 450 449.999984" height="600" preserveAspectRatio="xMidYMid meet" version="1.0"><defs><clipPath id="e351cbec88"><path d="M 54.164062 54.164062 L 395.835938 54.164062 L 395.835938 395.835938 L 54.164062 395.835938 Z M 54.164062 54.164062 " clip-rule="nonzero"/></clipPath><clipPath id="dce2244899"><path d="M 225 54.164062 C 130.648438 54.164062 54.164062 130.648438 54.164062 225 C 54.164062 319.351562 130.648438 395.835938 225 395.835938 C 319.351562 395.835938 395.835938 319.351562 395.835938 225 C 395.835938 130.648438 319.351562 54.164062 225 54.164062 Z M 225 54.164062 " clip-rule="nonzero"/></clipPath><clipPath id="849b3acd25"><path d="M 0.164062 0.164062 L 341.835938 0.164062 L 341.835938 341.835938 L 0.164062 341.835938 Z M 0.164062 0.164062 " clip-rule="nonzero"/></clipPath><clipPath id="0fa599ef91"><path d="M 171 0.164062 C 76.648438 0.164062 0.164062 76.648438 0.164062 171 C 0.164062 265.351562 76.648438 341.835938 171 341.835938 C 265.351562 341.835938 341.835938 265.351562 341.835938 171 C 341.835938 76.648438 265.351562 0.164062 171 0.164062 Z M 171 0.164062 " clip-rule="nonzero"/></clipPath><clipPath id="0206043947"><rect x="0" width="342" y="0" height="342"/></clipPath><clipPath id="aba0d53033"><path d="M 241 132.53125 L 296 132.53125 L 296 317.78125 L 241 317.78125 Z M 241 132.53125 " clip-rule="nonzero"/></clipPath><clipPath id="5d54ae1fb5"><path d="M 153.566406 148.28125 L 153.566406 301.71875 C 153.566406 310.417969 160.617188 317.46875 169.316406 317.46875 L 280.683594 317.46875 C 289.382812 317.46875 296.433594 310.417969 296.433594 301.71875 L 296.433594 148.28125 C 296.433594 139.582031 289.382812 132.53125 280.683594 132.53125 L 169.316406 132.53125 C 160.617188 132.53125 153.566406 139.582031 153.566406 148.28125 Z M 153.566406 148.28125 " clip-rule="nonzero"/></clipPath><clipPath id="410f380500"><path d="M 154 132.53125 L 208 132.53125 L 208 317.78125 L 154 317.78125 Z M 154 132.53125 " clip-rule="nonzero"/></clipPath><clipPath id="cd9e505a9c"><path d="M 153.566406 148.28125 L 153.566406 301.71875 C 153.566406 310.417969 160.617188 317.46875 169.316406 317.46875 L 280.683594 317.46875 C 289.382812 317.46875 296.433594 310.417969 296.433594 301.71875 L 296.433594 148.28125 C 296.433594 139.582031 289.382812 132.53125 280.683594 132.53125 L 169.316406 132.53125 C 160.617188 132.53125 153.566406 139.582031 153.566406 148.28125 Z M 153.566406 148.28125 " clip-rule="nonzero"/></clipPath></defs><g clip-path="url(#e351cbec88)"><g clip-path="url(#dce2244899)"><g transform="matrix(1, 0, 0, 1, 54, 54)"><g clip-path="url(#0206043947)"><g clip-path="url(#849b3acd25)"><g clip-path="url(#0fa599ef91)"><path fill="#726f6d" d="M 0.164062 0.164062 L 341.835938 0.164062 L 341.835938 341.835938 L 0.164062 341.835938 Z M 0.164062 0.164062 " fill-opacity="1" fill-rule="nonzero"/></g></g></g></g></g></g><g clip-path="url(#aba0d53033)"><g clip-path="url(#5d54ae1fb5)"><path fill="#ddd9d7" d="M 256.46875 132.53125 L 280.804688 132.53125 C 281.761719 132.53125 282.710938 132.625 283.652344 132.808594 C 284.589844 132.996094 285.503906 133.273438 286.390625 133.640625 C 287.277344 134.007812 288.117188 134.457031 288.914062 134.988281 C 289.710938 135.523438 290.449219 136.128906 291.125 136.804688 C 291.804688 137.484375 292.410156 138.222656 292.941406 139.019531 C 293.476562 139.816406 293.925781 140.65625 294.292969 141.542969 C 294.660156 142.429688 294.933594 143.339844 295.121094 144.28125 C 295.308594 145.222656 295.402344 146.171875 295.402344 147.128906 L 295.402344 302.863281 C 295.402344 303.820312 295.308594 304.769531 295.121094 305.710938 C 294.933594 306.652344 294.660156 307.566406 294.292969 308.449219 C 293.925781 309.335938 293.476562 310.175781 292.941406 310.972656 C 292.410156 311.769531 291.804688 312.507812 291.125 313.1875 C 290.449219 313.863281 289.710938 314.46875 288.914062 315.003906 C 288.117188 315.535156 287.277344 315.984375 286.390625 316.351562 C 285.503906 316.71875 284.589844 316.996094 283.652344 317.183594 C 282.710938 317.371094 281.761719 317.464844 280.804688 317.464844 L 256.46875 317.464844 C 255.511719 317.464844 254.5625 317.371094 253.621094 317.183594 C 252.679688 316.996094 251.769531 316.71875 250.882812 316.351562 C 249.996094 315.984375 249.15625 315.535156 248.359375 315.003906 C 247.5625 314.46875 246.824219 313.863281 246.144531 313.1875 C 245.46875 312.507812 244.863281 311.769531 244.328125 310.972656 C 243.796875 310.175781 243.347656 309.335938 242.980469 308.449219 C 242.613281 307.566406 242.335938 306.652344 242.148438 305.710938 C 241.964844 304.769531 241.871094 303.820312 241.871094 302.863281 L 241.871094 147.128906 C 241.871094 146.171875 241.964844 145.222656 242.148438 144.28125 C 242.335938 143.339844 242.613281 142.429688 242.980469 141.542969 C 243.347656 140.65625 243.796875 139.816406 244.328125 139.019531 C 244.863281 138.222656 245.46875 137.484375 246.144531 136.804688 C 246.824219 136.128906 247.5625 135.523438 248.359375 134.988281 C 249.15625 134.457031 249.996094 134.007812 250.882812 133.640625 C 251.769531 133.273438 252.679688 132.996094 253.621094 132.808594 C 254.5625 132.625 255.511719 132.53125 256.46875 132.53125 Z M 256.46875 132.53125 " fill-opacity="1" fill-rule="nonzero"/></g></g><g clip-path="url(#410f380500)"><g clip-path="url(#cd9e505a9c)"><path fill="#ddd9d7" d="M 168.871094 132.53125 L 193.203125 132.53125 C 194.160156 132.53125 195.109375 132.625 196.050781 132.808594 C 196.992188 132.996094 197.90625 133.273438 198.789062 133.640625 C 199.675781 134.007812 200.515625 134.457031 201.3125 134.988281 C 202.109375 135.523438 202.847656 136.128906 203.527344 136.804688 C 204.203125 137.484375 204.808594 138.222656 205.34375 139.019531 C 205.875 139.816406 206.324219 140.65625 206.691406 141.542969 C 207.058594 142.429688 207.335938 143.339844 207.523438 144.28125 C 207.710938 145.222656 207.800781 146.171875 207.800781 147.128906 L 207.800781 302.863281 C 207.800781 303.820312 207.710938 304.769531 207.523438 305.710938 C 207.335938 306.652344 207.058594 307.566406 206.691406 308.449219 C 206.324219 309.335938 205.875 310.175781 205.34375 310.972656 C 204.808594 311.769531 204.203125 312.507812 203.527344 313.1875 C 202.847656 313.863281 202.109375 314.46875 201.3125 315.003906 C 200.515625 315.535156 199.675781 315.984375 198.789062 316.351562 C 197.902344 316.71875 196.992188 316.996094 196.050781 317.183594 C 195.109375 317.371094 194.160156 317.464844 193.203125 317.464844 L 168.871094 317.464844 C 167.910156 317.464844 166.960938 317.371094 166.019531 317.183594 C 165.082031 316.996094 164.167969 316.71875 163.28125 316.351562 C 162.394531 315.984375 161.554688 315.535156 160.757812 315.003906 C 159.960938 314.46875 159.222656 313.863281 158.546875 313.1875 C 157.867188 312.507812 157.261719 311.769531 156.730469 310.972656 C 156.195312 310.175781 155.746094 309.335938 155.378906 308.449219 C 155.015625 307.566406 154.738281 306.652344 154.550781 305.710938 C 154.363281 304.769531 154.269531 303.820312 154.269531 302.863281 L 154.269531 147.128906 C 154.269531 146.171875 154.363281 145.222656 154.550781 144.28125 C 154.738281 143.339844 155.015625 142.429688 155.378906 141.542969 C 155.746094 140.65625 156.195312 139.816406 156.730469 139.019531 C 157.261719 138.222656 157.867188 137.484375 158.546875 136.804688 C 159.222656 136.128906 159.960938 135.523438 160.757812 134.988281 C 161.554688 134.457031 162.394531 134.007812 163.28125 133.640625 C 164.167969 133.273438 165.082031 132.996094 166.019531 132.808594 C 166.960938 132.625 167.910156 132.53125 168.871094 132.53125 Z M 168.871094 132.53125 " fill-opacity="1" fill-rule="nonzero"/></g></g></svg>