<svg xmlns="http://www.w3.org/2000/svg" xmlns:xlink="http://www.w3.org/1999/xlink" width="600" zoomAndPan="magnify" viewBox="0 0 450 449.999984" height="600" preserveAspectRatio="xMidYMid meet" version="1.0"><defs><clipPath id="c98de2e75a"><path d="M 29.703125 16.34375 L 420.296875 16.34375 L 420.296875 434 L 29.703125 434 Z M 29.703125 16.34375 " clip-rule="nonzero"/></clipPath><clipPath id="2e7c1a2174"><path d="M 225 16.34375 C 117.140625 16.34375 29.703125 109.761719 29.703125 225 C 29.703125 340.238281 117.140625 433.65625 225 433.65625 C 332.859375 433.65625 420.296875 340.238281 420.296875 225 C 420.296875 109.761719 332.859375 16.34375 225 16.34375 Z M 225 16.34375 " clip-rule="nonzero"/></clipPath><clipPath id="859416cd2b"><path d="M 0.703125 0.34375 L 391.296875 0.34375 L 391.296875 417.679688 L 0.703125 417.679688 Z M 0.703125 0.34375 " clip-rule="nonzero"/></clipPath><clipPath id="af11f38746"><path d="M 196 0.34375 C 88.140625 0.34375 0.703125 93.761719 0.703125 209 C 0.703125 324.238281 88.140625 417.65625 196 417.65625 C 303.859375 417.65625 391.296875 324.238281 391.296875 209 C 391.296875 93.761719 303.859375 0.34375 196 0.34375 Z M 196 0.34375 " clip-rule="nonzero"/></clipPath><clipPath id="6e64a20b7a"><rect x="0" width="392" y="0" height="418"/></clipPath><clipPath id="cc24678153"><path d="M 248.480469 68.371094 L 314.609375 68.371094 L 314.609375 154.578125 L 248.480469 154.578125 Z M 248.480469 68.371094 " clip-rule="nonzero"/></clipPath><clipPath id="42941b42d5"><path d="M 309.179688 121.707031 L 263.359375 152.914062 C 260.441406 154.898438 256.667969 155.109375 253.550781 153.460938 C 250.429688 151.808594 248.480469 148.570312 248.480469 145.042969 L 248.480469 78.105469 C 248.480469 74.578125 250.429688 71.339844 253.550781 69.691406 C 256.667969 68.042969 260.441406 68.253906 263.359375 70.238281 L 309.179688 101.445312 C 312.53125 103.726562 314.539062 107.519531 314.539062 111.574219 C 314.539062 115.632812 312.53125 119.425781 309.179688 121.707031 Z M 309.179688 121.707031 " clip-rule="nonzero"/></clipPath><clipPath id="fe6729caf2"><path d="M 0.480469 0.371094 L 66.609375 0.371094 L 66.609375 86.578125 L 0.480469 86.578125 Z M 0.480469 0.371094 " clip-rule="nonzero"/></clipPath><clipPath id="1e4a5f5ad0"><path d="M 61.179688 53.707031 L 15.359375 84.914062 C 12.441406 86.898438 8.667969 87.109375 5.550781 85.460938 C 2.429688 83.808594 0.480469 80.570312 0.480469 77.042969 L 0.480469 10.105469 C 0.480469 6.578125 2.429688 3.339844 5.550781 1.691406 C 8.667969 0.0429688 12.441406 0.253906 15.359375 2.238281 L 61.179688 33.445312 C 64.53125 35.726562 66.539062 39.519531 66.539062 43.574219 C 66.539062 47.632812 64.53125 51.425781 61.179688 53.707031 Z M 61.179688 53.707031 " clip-rule="nonzero"/></clipPath><clipPath id="4cb839ce70"><rect x="0" width="67" y="0" height="87"/></clipPath><clipPath id="335bb7061e"><path d="M 33.652344 16.34375 L 416.347656 16.34375 L 416.347656 399.042969 L 33.652344 399.042969 Z M 33.652344 16.34375 " clip-rule="nonzero"/></clipPath><clipPath id="413f8b8285"><path d="M 225 16.34375 C 119.320312 16.34375 33.652344 102.015625 33.652344 207.691406 C 33.652344 313.371094 119.320312 399.042969 225 399.042969 C 330.679688 399.042969 416.347656 313.371094 416.347656 207.691406 C 416.347656 102.015625 330.679688 16.34375 225 16.34375 Z M 225 16.34375 " clip-rule="nonzero"/></clipPath><clipPath id="242b77a875"><path d="M 0.652344 0.34375 L 383.347656 0.34375 L 383.347656 383.042969 L 0.652344 383.042969 Z M 0.652344 0.34375 " clip-rule="nonzero"/></clipPath><clipPath id="7965ab190a"><path d="M 192 0.34375 C 86.320312 0.34375 0.652344 86.015625 0.652344 191.691406 C 0.652344 297.371094 86.320312 383.042969 192 383.042969 C 297.679688 383.042969 383.347656 297.371094 383.347656 191.691406 C 383.347656 86.015625 297.679688 0.34375 192 0.34375 Z M 192 0.34375 " clip-rule="nonzero"/></clipPath><clipPath id="cc272f3ff0"><rect x="0" width="384" y="0" height="384"/></clipPath><clipPath id="c66e51a27c"><path d="M 169.828125 133.238281 L 321 133.238281 L 321 301.84375 L 169.828125 301.84375 Z M 169.828125 133.238281 " clip-rule="nonzero"/></clipPath><clipPath id="ff287b2a71"><path d="M 313.734375 229.632812 L 190.664062 299.957031 C 186.355469 302.421875 181.058594 302.402344 176.765625 299.910156 C 172.472656 297.417969 169.828125 292.828125 169.828125 287.863281 L 169.828125 147.585938 C 169.828125 142.621094 172.472656 138.03125 176.765625 135.539062 C 181.058594 133.046875 186.355469 133.03125 190.664062 135.492188 L 313.734375 205.816406 C 318.007812 208.261719 320.644531 212.804688 320.644531 217.726562 C 320.644531 222.648438 318.007812 227.191406 313.734375 229.632812 Z M 313.734375 229.632812 " clip-rule="nonzero"/></clipPath><clipPath id="85a2a87d1f"><path d="M 0.828125 0.238281 L 151.878906 0.238281 L 151.878906 168.84375 L 0.828125 168.84375 Z M 0.828125 0.238281 " clip-rule="nonzero"/></clipPath><clipPath id="83174cb81e"><path d="M 144.734375 96.632812 L 21.664062 166.957031 C 17.355469 169.421875 12.058594 169.402344 7.765625 166.910156 C 3.472656 164.417969 0.828125 159.828125 0.828125 154.863281 L 0.828125 14.585938 C 0.828125 9.621094 3.472656 5.03125 7.765625 2.539062 C 12.058594 0.046875 17.355469 0.03125 21.664062 2.492188 L 144.734375 72.816406 C 149.007812 75.261719 151.644531 79.804688 151.644531 84.726562 C 151.644531 89.648438 149.007812 94.191406 144.734375 96.632812 Z M 144.734375 96.632812 " clip-rule="nonzero"/></clipPath><clipPath id="3e5f15300f"><rect x="0" width="152" y="0" height="169"/></clipPath></defs><g clip-path="url(#c98de2e75a)"><g clip-path="url(#2e7c1a2174)"><g transform="matrix(1, 0, 0, 1, 29, 16)"><g clip-path="url(#6e64a20b7a)"><g clip-path="url(#859416cd2b)"><g clip-path="url(#af11f38746)"><path fill="#726f6d" d="M 0.703125 0.34375 L 391.296875 0.34375 L 391.296875 418.402344 L 0.703125 418.402344 Z M 0.703125 0.34375 " fill-opacity="1" fill-rule="nonzero"/></g></g></g></g></g></g><g clip-path="url(#cc24678153)"><g clip-path="url(#42941b42d5)"><g transform="matrix(1, 0, 0, 1, 248, 68)"><g clip-path="url(#4cb839ce70)"><g clip-path="url(#fe6729caf2)"><g clip-path="url(#1e4a5f5ad0)"><path fill="#ddd9d7" d="M 76.058594 -7.894531 L 76.058594 95.140625 L 0.480469 95.140625 L 0.480469 -7.894531 Z M 76.058594 -7.894531 " fill-opacity="1" fill-rule="nonzero"/></g></g></g></g></g></g><g clip-path="url(#335bb7061e)"><g clip-path="url(#413f8b8285)"><g transform="matrix(1, 0, 0, 1, 33, 16)"><g clip-path="url(#cc272f3ff0)"><g clip-path="url(#242b77a875)"><g clip-path="url(#7965ab190a)"><path fill="#898989" d="M 0.652344 0.34375 L 383.347656 0.34375 L 383.347656 383.042969 L 0.652344 383.042969 Z M 0.652344 0.34375 " fill-opacity="1" fill-rule="nonzero"/></g></g></g></g></g></g><g clip-path="url(#c66e51a27c)"><g clip-path="url(#ff287b2a71)"><g transform="matrix(1, 0, 0, 1, 169, 133)"><g clip-path="url(#3e5f15300f)"><g clip-path="url(#85a2a87d1f)"><g clip-path="url(#83174cb81e)"><path fill="#ddd9d7" d="M 165.570312 -9.414062 L 165.570312 179.140625 L 0.828125 179.140625 L 0.828125 -9.414062 Z M 165.570312 -9.414062 " fill-opacity="1" fill-rule="nonzero"/></g></g></g></g></g></g></svg>