<svg xmlns="http://www.w3.org/2000/svg" xmlns:xlink="http://www.w3.org/1999/xlink" width="600" zoomAndPan="magnify" viewBox="0 0 450 149.999998" height="200" preserveAspectRatio="xMidYMid meet" version="1.0"><defs><clipPath id="73f9dcbdf8"><path d="M 16.4375 25.726562 L 433.4375 25.726562 L 433.4375 123.976562 L 16.4375 123.976562 Z M 16.4375 25.726562 " clip-rule="nonzero"/></clipPath><clipPath id="aea6d41fca"><path d="M 25 35 L 433.4375 35 L 433.4375 123.976562 L 25 123.976562 Z M 25 35 " clip-rule="nonzero"/></clipPath></defs><g clip-path="url(#73f9dcbdf8)"><path fill="#8a7e77" d="M 65.949219 25.726562 L 384.007812 25.726562 C 411.214844 25.726562 433.265625 47.777344 433.265625 74.984375 C 433.265625 102.1875 411.214844 124.238281 384.007812 124.238281 L 65.949219 124.238281 C 38.746094 124.238281 16.691406 102.1875 16.691406 74.984375 C 16.691406 47.777344 38.746094 25.726562 65.949219 25.726562 " fill-opacity="1" fill-rule="nonzero"/></g><g clip-path="url(#aea6d41fca)"><path fill="#6f6961" d="M 413.679688 35.664062 C 419.207031 43.625 422.449219 53.292969 422.449219 63.71875 C 422.449219 90.921875 400.394531 112.976562 373.191406 112.976562 L 55.132812 112.976562 C 43.992188 112.976562 33.714844 109.277344 25.460938 103.039062 C 34.355469 115.851562 49.171875 124.238281 65.949219 124.238281 L 384.007812 124.238281 C 411.214844 124.238281 433.265625 102.1875 433.265625 74.984375 C 433.265625 58.921875 425.578125 44.65625 413.679688 35.664062 " fill-opacity="1" fill-rule="nonzero"/></g><path fill="#8a7e77" d="M 195.1875 45.1875 L 254.8125 45.1875 L 254.8125 104.8125 L 195.1875 104.8125 Z M 195.1875 45.1875 " fill-opacity="1" fill-rule="nonzero"/><path fill="#8a7e77" d="M 195 45 L 195 105 L 255 105 L 255 45 Z M 254.621094 104.621094 L 195.378906 104.621094 L 195.378906 45.378906 L 254.621094 45.378906 Z M 254.621094 104.621094 " fill-opacity="1" fill-rule="nonzero"/></svg>