<svg xmlns="http://www.w3.org/2000/svg" xmlns:xlink="http://www.w3.org/1999/xlink" width="600" zoomAndPan="magnify" viewBox="0 0 450 449.999984" height="600" preserveAspectRatio="xMidYMid meet" version="1.0"><defs><clipPath id="36dbfae1d0"><path d="M 135 135 L 145.5 135 L 145.5 145.5 L 135 145.5 Z M 135 135 " clip-rule="nonzero"/></clipPath></defs><path fill="#52504e" d="M 190.371094 15.148438 C 180.320312 15.148438 171.726562 22.253906 169.796875 32.117188 L 162.789062 68.101562 C 145.566406 74.617188 129.640625 83.714844 115.65625 95.195312 L 81.144531 83.308594 C 71.640625 80.035156 61.179688 83.964844 56.144531 92.652344 L 24.503906 147.492188 C 19.488281 156.199219 21.3125 167.253906 28.890625 173.84375 L 56.554688 197.902344 C 55.117188 206.746094 54.175781 215.746094 54.175781 224.996094 C 54.175781 234.242188 55.117188 243.242188 56.554688 252.085938 L 28.890625 276.144531 C 21.3125 282.734375 19.488281 293.789062 24.503906 302.496094 L 56.144531 357.335938 C 61.160156 366.042969 71.640625 369.972656 81.144531 366.722656 L 115.65625 354.835938 C 129.632812 366.308594 145.574219 375.375 162.789062 381.886719 L 169.796875 417.871094 C 171.726562 427.734375 180.320312 434.839844 190.371094 434.839844 L 253.734375 434.839844 C 263.785156 434.839844 272.378906 427.734375 274.308594 417.871094 L 281.316406 381.886719 C 298.539062 375.375 314.464844 366.273438 328.449219 354.792969 L 362.960938 366.679688 C 372.464844 369.953125 382.925781 366.042969 387.960938 357.335938 L 419.601562 302.457031 C 424.617188 293.75 422.792969 282.734375 415.214844 276.144531 L 387.550781 252.085938 C 388.988281 243.242188 389.929688 234.242188 389.929688 224.996094 C 389.929688 215.746094 388.988281 206.746094 387.550781 197.902344 L 415.214844 173.84375 C 422.792969 167.253906 424.617188 156.199219 419.601562 147.492188 L 387.960938 92.652344 C 382.945312 83.945312 372.464844 80.015625 362.960938 83.265625 L 328.449219 95.152344 C 314.46875 83.679688 298.53125 74.613281 281.316406 68.101562 L 274.308594 32.117188 C 272.378906 22.253906 263.785156 15.148438 253.734375 15.148438 Z M 222.050781 141.054688 C 268.40625 141.054688 305.992188 178.640625 305.992188 224.996094 C 305.992188 271.347656 268.40625 308.933594 222.050781 308.933594 C 175.699219 308.933594 138.113281 271.347656 138.113281 224.996094 C 138.113281 178.640625 175.699219 141.054688 222.050781 141.054688 Z M 222.050781 141.054688 " fill-opacity="1" fill-rule="nonzero"/><g clip-path="url(#36dbfae1d0)"><path fill="#52504e" d="M 135.03125 135.03125 L 145.152344 135.03125 L 145.152344 145.152344 L 135.03125 145.152344 Z M 135.03125 135.03125 " fill-opacity="1" fill-rule="nonzero"/><path fill="#52504e" d="M 135 135 L 135 145.183594 L 145.183594 145.183594 L 145.183594 135 Z M 145.121094 145.121094 L 135.0625 145.121094 L 135.0625 135.0625 L 145.121094 135.0625 Z M 145.121094 145.121094 " fill-opacity="1" fill-rule="nonzero"/></g></svg>